<?xml version="1.0" encoding="UTF-8"?>
<!DOCTYPE svg PUBLIC "-//W3C//DTD SVG 1.1//EN" "http://www.w3.org/Graphics/SVG/1.1/DTD/svg11.dtd">
<svg xmlns="http://www.w3.org/2000/svg" version="1.1" width="384px" height="383px" style="shape-rendering:geometricPrecision; text-rendering:geometricPrecision; image-rendering:optimizeQuality; fill-rule:evenodd; clip-rule:evenodd" xmlns:xlink="http://www.w3.org/1999/xlink">
<g><path style="opacity:0.86" fill="#d98b99" d="M 170.5,-0.5 C 184.5,-0.5 198.5,-0.5 212.5,-0.5C 295.652,12.8143 350.486,59.4809 377,139.5C 379.772,150.526 381.939,161.526 383.5,172.5C 383.5,184.833 383.5,197.167 383.5,209.5C 370.981,293.702 324.314,349.202 243.5,376C 232.787,378.642 222.121,380.809 211.5,382.5C 198.167,382.5 184.833,382.5 171.5,382.5C 104.459,373.241 54.2927,339.241 21,280.5C 9.86407,258.267 2.6974,234.934 -0.5,210.5C -0.5,197.5 -0.5,184.5 -0.5,171.5C 8.75978,104.457 42.7598,54.29 101.5,21C 123.41,9.94586 146.41,2.77919 170.5,-0.5 Z M 176.5,7.5 C 244.784,4.40069 299.618,29.734 341,83.5C 377.503,137.701 384.837,195.701 363,257.5C 339.695,313.74 298.862,350.574 240.5,368C 167.9,384.815 105.733,366.649 54,313.5C 8.67834,258.888 -3.32166,197.555 18,129.5C 46.9053,57.7629 99.7387,17.0962 176.5,7.5 Z"/></g>
<g><path style="opacity:0.991" fill="#010001" d="M 175.5,16.5 C 237.249,13.1382 288.082,34.8049 328,81.5C 367.439,133.895 376.439,191.229 355,253.5C 326.781,318.874 277.281,356.04 206.5,365C 127.686,367.858 69.8529,334.691 33,265.5C 4.61036,197.232 13.277,134.232 59,76.5C 90.2521,41.7905 129.085,21.7905 175.5,16.5 Z"/></g>
<g><path style="opacity:1" fill="#d58896" d="M 138.5,79.5 C 147.154,79.032 155.487,80.3654 163.5,83.5C 162.502,87.6582 161.002,91.6582 159,95.5C 151.334,92.2738 143.501,91.7738 135.5,94C 127.448,101.625 125.281,110.792 129,121.5C 132.079,128.791 137.579,132.124 145.5,131.5C 151,131.332 156.333,130.332 161.5,128.5C 162.091,131.94 163.091,135.273 164.5,138.5C 158.249,142.796 151.249,144.463 143.5,143.5C 130.915,144.744 121.748,139.744 116,128.5C 108.598,109.923 112.765,94.7565 128.5,83C 131.85,81.5137 135.184,80.347 138.5,79.5 Z"/></g>
<g><path style="opacity:1" fill="#d58996" d="M 181.5,94.5 C 189.503,93.7082 197.169,94.8749 204.5,98C 207.467,100.1 209.3,102.934 210,106.5C 210.5,118.162 210.667,129.829 210.5,141.5C 200.937,143.45 191.27,143.95 181.5,143C 171.77,139.527 168.27,132.693 171,122.5C 174.045,118.058 178.211,115.224 183.5,114C 188.087,113.201 192.587,113.368 197,114.5C 197.326,107.836 193.993,104.836 187,105.5C 183.531,105.661 180.197,106.327 177,107.5C 176.245,104.312 175.411,101.145 174.5,98C 176.548,96.168 178.881,95.0013 181.5,94.5 Z"/></g>
<g><path style="opacity:1" fill="#d48895" d="M 233.5,94.5 C 241.997,93.5085 249.997,95.0085 257.5,99C 259.986,102.137 261.819,105.637 263,109.5C 263.5,120.495 263.667,131.495 263.5,142.5C 258.833,142.5 254.167,142.5 249.5,142.5C 249.667,131.828 249.5,121.161 249,110.5C 248.5,108.667 247.333,107.5 245.5,107C 242.183,106.502 238.85,106.335 235.5,106.5C 235.5,118.5 235.5,130.5 235.5,142.5C 231.167,142.5 226.833,142.5 222.5,142.5C 222.333,127.496 222.5,112.496 223,97.5C 226.662,96.7605 230.162,95.7605 233.5,94.5 Z"/></g>
<g><path style="opacity:1" fill="#0a0607" d="M 187.5,122.5 C 190.833,122.5 194.167,122.5 197.5,122.5C 197.5,126.167 197.5,129.833 197.5,133.5C 193.818,133.665 190.152,133.499 186.5,133C 182.336,129.005 182.669,125.505 187.5,122.5 Z"/></g>
<g><path style="opacity:1" fill="#d78a98" d="M 73.5,171.5 C 68.7536,180.661 63.7536,189.661 58.5,198.5C 53.1399,189.62 48.1399,180.453 43.5,171C 49.4534,159.594 55.2868,148.094 61,136.5C 62.8917,132.942 65.7251,130.442 69.5,129C 76.8333,128.333 84.1667,128.333 91.5,129C 93.3249,130.466 93.8249,132.299 93,134.5C 85.9649,146.571 79.4649,158.904 73.5,171.5 Z"/></g>
<g><path style="opacity:1" fill="#d58997" d="M 324.5,142.5 C 318.913,152.006 313.58,161.673 308.5,171.5C 303.404,158.642 297.238,146.309 290,134.5C 289.175,132.299 289.675,130.466 291.5,129C 298.833,128.333 306.167,128.333 313.5,129C 319.175,131.843 322.842,136.343 324.5,142.5 Z"/></g>
<g><path style="opacity:1" fill="#fafafa" d="M 324.5,142.5 C 329.471,151.772 334.471,161.105 339.5,170.5C 333,182.833 326.5,195.167 320,207.5C 318.269,209.617 316.102,211.117 313.5,212C 306.167,212.667 298.833,212.667 291.5,212C 289.675,210.534 289.175,208.701 290,206.5C 296.397,194.941 302.563,183.275 308.5,171.5C 313.58,161.673 318.913,152.006 324.5,142.5 Z"/></g>
<g><path style="opacity:1" fill="#fcfcfc" d="M 208.5,180.5 C 208.5,191.167 208.5,201.833 208.5,212.5C 204.5,212.5 200.5,212.5 196.5,212.5C 196.827,202.985 196.494,193.652 195.5,184.5C 194.062,176.722 189.562,174.388 182,177.5C 181.5,189.495 181.333,201.495 181.5,213.5C 177.167,213.5 172.833,213.5 168.5,213.5C 168.5,192.5 168.5,171.5 168.5,150.5C 172.531,149.996 176.531,149.33 180.5,148.5C 181.495,154.128 181.829,159.794 181.5,165.5C 188.391,164.901 195.058,165.735 201.5,168C 205.8,171.102 208.133,175.269 208.5,180.5 Z"/></g>
<g><path style="opacity:1" fill="#f6f6f6" d="M 129.5,149.5 C 138.744,148.594 147.411,150.261 155.5,154.5C 154.314,158.257 152.481,161.59 150,164.5C 144.454,161.753 138.621,160.919 132.5,162C 128.067,164.331 127.4,167.498 130.5,171.5C 137.876,174.904 145.21,178.404 152.5,182C 159.454,189.816 160.287,198.316 155,207.5C 151.238,211.13 146.738,213.297 141.5,214C 132.201,215.319 123.201,214.319 114.5,211C 113.665,207.437 114.165,203.937 116,200.5C 116.561,199.978 117.228,199.645 118,199.5C 124.556,202.339 131.39,203.172 138.5,202C 143.115,200.923 144.615,198.09 143,193.5C 142.167,192.667 141.333,191.833 140.5,191C 133.566,188.532 126.899,185.532 120.5,182C 112.335,174.189 111.502,165.689 118,156.5C 121.514,153.5 125.347,151.167 129.5,149.5 Z"/></g>
<g><path style="opacity:1" fill="#f7f7f7" d="M 262.5,181.5 C 262.5,185.5 262.5,189.5 262.5,193.5C 252.5,193.5 242.5,193.5 232.5,193.5C 232.263,194.791 232.596,195.791 233.5,196.5C 234.914,199.56 237.247,201.726 240.5,203C 246.913,203.559 253.247,203.059 259.5,201.5C 260.114,205.135 260.448,208.802 260.5,212.5C 252.253,214.286 243.92,214.786 235.5,214C 223.903,209.834 218.237,201.5 218.5,189C 220.513,172.313 229.846,164.313 246.5,165C 255.456,167.121 260.789,172.621 262.5,181.5 Z"/></g>
<g><path style="opacity:1" fill="#f8f8f8" d="M 73.5,171.5 C 80.2258,183.279 86.7258,195.279 93,207.5C 93.7112,209.367 93.2112,210.867 91.5,212C 83.8333,212.667 76.1667,212.667 68.5,212C 63.0991,209.032 59.7658,204.532 58.5,198.5C 63.7536,189.661 68.7536,180.661 73.5,171.5 Z"/></g>
<g><path style="opacity:1" fill="#080808" d="M 250.5,184.5 C 244.402,185.117 238.735,184.45 233.5,182.5C 235.958,176.793 240.291,174.959 246.5,177C 249.024,178.883 250.358,181.383 250.5,184.5 Z"/></g>
<g><path style="opacity:1" fill="#7c7c7c" d="M 233.5,182.5 C 238.735,184.45 244.402,185.117 250.5,184.5C 244.69,185.49 238.69,185.823 232.5,185.5C 232.263,184.209 232.596,183.209 233.5,182.5 Z"/></g>
<g><path style="opacity:1" fill="#b9b9b9" d="M 208.5,180.5 C 209.495,191.321 209.828,202.321 209.5,213.5C 204.833,213.5 200.167,213.5 195.5,213.5C 195.5,203.833 195.5,194.167 195.5,184.5C 196.494,193.652 196.827,202.985 196.5,212.5C 200.5,212.5 204.5,212.5 208.5,212.5C 208.5,201.833 208.5,191.167 208.5,180.5 Z"/></g>
<g><path style="opacity:1" fill="#afafaf" d="M 262.5,181.5 C 263.485,185.634 263.818,189.968 263.5,194.5C 253.111,193.859 243.111,194.526 233.5,196.5C 232.596,195.791 232.263,194.791 232.5,193.5C 242.5,193.5 252.5,193.5 262.5,193.5C 262.5,189.5 262.5,185.5 262.5,181.5 Z"/></g>
<g><path style="opacity:1" fill="#d38795" d="M 217.5,220.5 C 219.5,220.5 221.5,220.5 223.5,220.5C 223.667,236.503 223.5,252.503 223,268.5C 198.052,275.216 188.719,266.216 195,241.5C 199.915,235.554 206.081,233.887 213.5,236.5C 213.5,231.5 213.5,226.5 213.5,221.5C 215.099,221.768 216.432,221.434 217.5,220.5 Z"/></g>
<g><path style="opacity:1" fill="#d48895" d="M 128.5,224.5 C 135.305,223.853 141.805,224.853 148,227.5C 148.288,230.472 147.455,233.139 145.5,235.5C 128.795,230.035 121.629,236.035 124,253.5C 125.875,259.377 129.875,262.044 136,261.5C 139.639,261.518 143.139,260.852 146.5,259.5C 151.668,266.15 150.002,269.65 141.5,270C 123.533,273.031 113.867,265.531 112.5,247.5C 113.171,236.463 118.504,228.797 128.5,224.5 Z"/></g>
<g><path style="opacity:1" fill="#d48896" d="M 163.5,235.5 C 181.622,234.454 188.789,242.787 185,260.5C 179.343,270.789 171.177,273.289 160.5,268C 152.979,260.657 151.479,252.157 156,242.5C 158.396,239.933 160.896,237.6 163.5,235.5 Z"/></g>
<g><path style="opacity:1" fill="#d58997" d="M 261.5,246.5 C 261.5,249.5 261.5,252.5 261.5,255.5C 254.313,255.175 247.313,255.509 240.5,256.5C 241.277,259.112 242.944,260.945 245.5,262C 250.184,262.461 254.851,262.295 259.5,261.5C 259.768,264.119 259.435,266.619 258.5,269C 239.216,274.361 230.049,267.194 231,247.5C 236.138,235.52 244.638,232.353 256.5,238C 259.091,240.357 260.758,243.191 261.5,246.5 Z"/></g>
<g><path style="opacity:1" fill="#0d0809" d="M 243.5,243.5 C 245.857,243.337 248.19,243.503 250.5,244C 252.155,245.444 252.822,247.278 252.5,249.5C 248.5,249.5 244.5,249.5 240.5,249.5C 240.615,247.053 241.615,245.053 243.5,243.5 Z"/></g>
<g><path style="opacity:1" fill="#080405" d="M 166.5,243.5 C 175.136,243.653 178.302,247.986 176,256.5C 174.957,261.223 172.124,263.056 167.5,262C 165.667,261.5 164.5,260.333 164,258.5C 162.776,253.043 163.609,248.043 166.5,243.5 Z"/></g>
<g><path style="opacity:1" fill="#0a0606" d="M 205.5,243.5 C 207.92,243.292 210.253,243.626 212.5,244.5C 213.496,250.463 213.829,256.463 213.5,262.5C 203.843,262.917 200.009,258.25 202,248.5C 202.997,246.677 204.164,245.01 205.5,243.5 Z"/></g>
<g><path style="opacity:1" fill="#7e5058" d="M 261.5,246.5 C 262.479,249.625 262.813,252.958 262.5,256.5C 255.167,256.5 247.833,256.5 240.5,256.5C 247.313,255.509 254.313,255.175 261.5,255.5C 261.5,252.5 261.5,249.5 261.5,246.5 Z"/></g>
<g><path style="opacity:1" fill="#c1c1c1" d="M 211.5,301.5 C 210.833,268.167 210.167,268.167 209.5,301.5C 208.507,293.016 208.174,284.349 208.5,275.5C 209.833,275.5 211.167,275.5 212.5,275.5C 212.826,284.349 212.493,293.016 211.5,301.5 Z"/></g>
<g><path style="opacity:1" fill="#fefffe" d="M 211.5,301.5 C 210.833,301.5 210.167,301.5 209.5,301.5C 210.167,268.167 210.833,268.167 211.5,301.5 Z"/></g>
<g><path style="opacity:1" fill="#dadada" d="M 220.5,281.5 C 223.518,281.335 226.518,281.502 229.5,282C 230.931,282.465 232.097,283.299 233,284.5C 234.404,290.044 234.904,295.71 234.5,301.5C 233.167,301.5 231.833,301.5 230.5,301.5C 230.666,296.489 230.499,291.489 230,286.5C 227.619,285.565 225.119,285.232 222.5,285.5C 222.5,290.833 222.5,296.167 222.5,301.5C 221.167,301.5 219.833,301.5 218.5,301.5C 217.934,294.549 218.601,287.882 220.5,281.5 Z"/></g>
<g><path style="opacity:1" fill="#dadada" d="M 245.5,281.5 C 247.527,281.338 249.527,281.505 251.5,282C 252.973,282.71 253.64,283.876 253.5,285.5C 241.806,285.181 239.473,289.681 246.5,299C 248.568,299.687 250.568,299.52 252.5,298.5C 253.731,299.651 253.731,300.817 252.5,302C 244.003,303.587 239.337,300.087 238.5,291.5C 239.288,287.052 241.621,283.718 245.5,281.5 Z"/></g>
<g><path style="opacity:1" fill="#e9e9e9" d="M 257.5,297.5 C 258.833,297.5 260.167,297.5 261.5,297.5C 261.5,299.167 261.5,300.833 261.5,302.5C 258.09,302.616 256.756,300.95 257.5,297.5 Z"/></g>
</svg>
