<?xml version="1.0" encoding="UTF-8"?>
<!DOCTYPE svg PUBLIC "-//W3C//DTD SVG 1.1//EN" "http://www.w3.org/Graphics/SVG/1.1/DTD/svg11.dtd">
<svg xmlns="http://www.w3.org/2000/svg" version="1.1" width="1024px" height="1024px" style="shape-rendering:geometricPrecision; text-rendering:geometricPrecision; image-rendering:optimizeQuality; fill-rule:evenodd; clip-rule:evenodd" xmlns:xlink="http://www.w3.org/1999/xlink">
<g><path style="opacity:1" fill="#f3f0fe" d="M -0.5,-0.5 C 340.833,-0.5 682.167,-0.5 1023.5,-0.5C 1023.5,340.833 1023.5,682.167 1023.5,1023.5C 682.167,1023.5 340.833,1023.5 -0.5,1023.5C -0.5,682.167 -0.5,340.833 -0.5,-0.5 Z"/></g>
<g><path style="opacity:1" fill="#32135e" d="M 581.5,301.5 C 577.532,307.266 574.198,313.433 571.5,320C 584.115,357.754 578.115,392.087 553.5,423C 581.881,425.58 601.048,440.08 611,466.5C 612.979,476.293 612.979,485.959 611,495.5C 627.404,508.727 640.238,524.727 649.5,543.5C 656.144,557.401 660.31,572.067 662,587.5C 662.708,586.619 663.542,585.953 664.5,585.5C 664.461,586.583 664.127,587.583 663.5,588.5C 664.167,589.167 664.833,589.833 665.5,590.5C 664.038,591.471 662.705,591.138 661.5,589.5C 660.175,584.238 659.175,578.905 658.5,573.5C 658.167,572.833 657.833,572.167 657.5,571.5C 656.571,572.689 656.238,574.022 656.5,575.5C 653.552,575.777 650.719,575.444 648,574.5C 647.805,569.582 647.305,564.749 646.5,560C 643.563,559.9 640.896,559.067 638.5,557.5C 637.676,560.785 637.176,564.118 637,567.5C 636.333,565.5 635.667,563.5 635,561.5C 634.517,562.448 634.351,563.448 634.5,564.5C 633.712,561.113 632.712,557.78 631.5,554.5C 626.964,539.102 618.631,526.102 606.5,515.5C 605.473,514.152 604.14,513.652 602.5,514C 597.5,520.333 591.833,526 585.5,531C 574.751,535.244 564.418,540.244 554.5,546C 545.436,554.153 539.936,564.32 538,576.5C 526.49,601.175 507.657,617.342 481.5,625C 468.489,628.115 455.489,630.615 442.5,632.5C 437.808,632.425 433.474,633.425 429.5,635.5C 410.833,640.661 403.667,652.661 408,671.5C 414.474,685.843 425.64,694.01 441.5,696C 452.869,696.793 464.202,696.46 475.5,695C 494.637,690.233 512.971,683.4 530.5,674.5C 530.918,675.222 531.584,675.722 532.5,676C 532.167,676.333 531.833,676.667 531.5,677C 533.577,677.192 535.577,677.692 537.5,678.5C 534.628,679.783 531.795,679.783 529,678.5C 527.608,681.278 527.108,684.278 527.5,687.5C 524.833,687.5 522.167,687.5 519.5,687.5C 519.5,690.167 519.5,692.833 519.5,695.5C 516.833,695.5 514.167,695.5 511.5,695.5C 511.5,696.833 511.5,698.167 511.5,699.5C 507.5,699.5 503.5,699.5 499.5,699.5C 499.5,700.833 499.5,702.167 499.5,703.5C 498.167,703.5 496.833,703.5 495.5,703.5C 495.663,701.143 495.497,698.81 495,696.5C 492.342,695.306 491.176,696.306 491.5,699.5C 488.833,699.5 486.167,699.5 483.5,699.5C 483.5,700.833 483.5,702.167 483.5,703.5C 482.167,703.5 480.833,703.5 479.5,703.5C 479.5,706.167 479.5,708.833 479.5,711.5C 474.167,711.5 468.833,711.5 463.5,711.5C 463.5,714.167 463.5,716.833 463.5,719.5C 468.869,720.007 474.202,720.841 479.5,722C 478.167,722.333 476.833,722.667 475.5,723C 476.094,723.464 476.761,723.631 477.5,723.5C 463.04,726.478 448.373,728.811 433.5,730.5C 425.495,730.857 417.495,731.357 409.5,732C 406.639,731.97 404.305,732.803 402.5,734.5C 406.117,735.664 409.45,737.497 412.5,740C 411,740.167 409.5,740.333 408,740.5C 399.907,738.526 391.74,736.859 383.5,735.5C 364.033,730.799 346.367,722.465 330.5,710.5C 330.423,709.25 329.756,708.417 328.5,708C 330.256,707.798 331.922,707.298 333.5,706.5C 332.91,705.201 331.91,704.368 330.5,704C 331.126,703.25 331.626,702.416 332,701.5C 333.401,703.192 335.234,703.859 337.5,703.5C 337.5,702.167 337.5,700.833 337.5,699.5C 338.833,699.5 340.167,699.5 341.5,699.5C 341.5,700.833 341.5,702.167 341.5,703.5C 342.833,703.5 344.167,703.5 345.5,703.5C 345.5,704.833 345.5,706.167 345.5,707.5C 347.5,707.5 349.5,707.5 351.5,707.5C 349.443,695.916 351.777,694.749 358.5,704C 360.403,704.774 362.07,704.44 363.5,703C 363.374,701.026 363.208,698.859 363,696.5C 360.741,695.62 358.575,694.62 356.5,693.5C 343.511,671.359 336.011,647.359 334,621.5C 333.667,613.5 333.333,605.5 333,597.5C 331.517,601.438 330.35,605.438 329.5,609.5C 328.25,609.577 327.417,610.244 327,611.5C 326.333,623.5 326.333,635.5 327,647.5C 328.958,655.192 330.791,662.859 332.5,670.5C 332.167,671.167 331.833,671.833 331.5,672.5C 329.034,672.35 326.368,672.017 323.5,671.5C 323.5,674.167 323.5,676.833 323.5,679.5C 322.167,679.5 320.833,679.5 319.5,679.5C 319.5,676.833 319.5,674.167 319.5,671.5C 318.167,671.5 316.833,671.5 315.5,671.5C 315.5,666.167 315.5,660.833 315.5,655.5C 311.5,655.5 307.5,655.5 303.5,655.5C 303.5,652.833 303.5,650.167 303.5,647.5C 300.833,647.5 298.167,647.5 295.5,647.5C 295.5,644.833 295.5,642.167 295.5,639.5C 298.247,639.813 300.914,639.48 303.5,638.5C 303.291,637.914 302.957,637.414 302.5,637C 300.167,636.333 297.833,636.333 295.5,637C 292.544,638.596 289.544,640.096 286.5,641.5C 285.833,639.5 285.167,637.5 284.5,635.5C 283.758,637.108 283.591,638.775 284,640.5C 282.989,641.337 281.822,641.67 280.5,641.5C 271.694,616.751 270.361,591.751 276.5,566.5C 275.446,579.672 274.946,593.005 275,606.5C 276.587,609.983 277.754,613.65 278.5,617.5C 279.842,615.995 281.508,615.328 283.5,615.5C 283.187,618.247 283.52,620.914 284.5,623.5C 285.833,620.833 287.167,620.833 288.5,623.5C 289.429,622.311 289.762,620.978 289.5,619.5C 291.451,619.773 292.951,619.107 294,617.5C 294.748,619.332 295.748,620.999 297,622.5C 296.086,626.544 297.586,629.544 301.5,631.5C 302.906,631.973 303.573,632.973 303.5,634.5C 304.694,637.018 305.86,637.018 307,634.5C 307.564,631.845 308.064,629.179 308.5,626.5C 306.654,622.36 306.82,618.026 309,613.5C 309.667,614.167 310.333,614.833 311,615.5C 310.946,610.62 311.113,605.787 311.5,601C 311.833,600.5 312.167,600 312.5,599.5C 313.48,602.086 313.813,604.753 313.5,607.5C 315.5,607.5 317.5,607.5 319.5,607.5C 319.5,602.167 319.5,596.833 319.5,591.5C 322.167,591.5 324.833,591.5 327.5,591.5C 327.5,593.5 327.5,595.5 327.5,597.5C 328.873,597.657 330.207,597.49 331.5,597C 332.305,595.028 333.639,593.528 335.5,592.5C 335.91,597.517 336.244,602.517 336.5,607.5C 339.079,607.083 341.246,607.75 343,609.5C 344.672,616.794 344.839,624.127 343.5,631.5C 345.492,631.328 347.158,631.995 348.5,633.5C 349.965,632.391 350.965,632.891 351.5,635C 350.594,638.422 350.594,641.589 351.5,644.5C 353.064,646.575 354.064,648.908 354.5,651.5C 355.833,652.5 357.167,653.5 358.5,654.5C 357.675,655.386 356.675,655.719 355.5,655.5C 355.338,659.997 356.838,660.331 360,656.5C 360.18,658.488 360.014,660.488 359.5,662.5C 361.514,662.392 363.18,663.058 364.5,664.5C 370.675,677.139 379.842,687.139 392,694.5C 391.288,691.053 389.955,687.719 388,684.5C 376.522,650.627 387.355,627.127 420.5,614C 412.299,602.535 407.632,590.035 406.5,576.5C 407.833,578.833 409.167,581.167 410.5,583.5C 415.325,593.617 421.992,602.451 430.5,610C 441.133,607.707 451.799,605.873 462.5,604.5C 472.974,602.881 482.974,599.714 492.5,595C 488.044,592.252 483.711,589.419 479.5,586.5C 478.554,584.868 477.554,583.201 476.5,581.5C 479.505,579.497 480.172,576.83 478.5,573.5C 475.272,574.998 471.939,576.331 468.5,577.5C 466.617,577.124 465.117,576.124 464,574.5C 463.9,571.563 463.067,568.896 461.5,566.5C 464.411,566.124 466.411,564.624 467.5,562C 466.768,560.235 465.435,559.068 463.5,558.5C 463.863,557.817 464.196,557.15 464.5,556.5C 473.013,563.254 482.013,569.254 491.5,574.5C 494.079,577.135 497.079,579.301 500.5,581C 502.914,582.885 505.581,583.552 508.5,583C 516.45,574.606 521.95,564.773 525,553.5C 527.726,548.107 531.226,543.274 535.5,539C 505.55,526.944 492.05,504.778 495,472.5C 495.273,470.899 495.773,469.399 496.5,468C 478.569,469.191 462.569,464.358 448.5,453.5C 447.833,457.313 447.166,460.979 446.5,464.5C 443.024,463.357 439.358,463.19 435.5,464C 434.381,467.566 432.381,468.233 429.5,466C 431.827,463.089 431.827,460.089 429.5,457C 429.559,455.564 429.892,454.231 430.5,453C 428.805,441.802 427.472,430.636 426.5,419.5C 425.325,419.719 424.325,419.386 423.5,418.5C 424.5,417.667 425.5,416.833 426.5,416C 426.374,414.026 426.208,411.859 426,409.5C 423.772,410.892 422.606,412.892 422.5,415.5C 421.5,415.5 420.5,415.5 419.5,415.5C 419.5,416.833 419.5,418.167 419.5,419.5C 416.833,419.5 414.167,419.5 411.5,419.5C 411.5,420.833 411.5,422.167 411.5,423.5C 414.167,423.5 416.833,423.5 419.5,423.5C 419.44,426.021 420.106,428.354 421.5,430.5C 420.861,433.475 420.361,436.475 420,439.5C 418.431,440.938 416.931,442.438 415.5,444C 416.308,444.308 416.975,444.808 417.5,445.5C 415.966,450.899 413.633,455.899 410.5,460.5C 408.696,458.02 406.363,456.353 403.5,455.5C 403.5,458.167 403.5,460.833 403.5,463.5C 408.421,463.847 408.254,464.847 403,466.5C 402.506,468.134 402.34,469.801 402.5,471.5C 399.344,471.471 397.678,469.804 397.5,466.5C 398.167,465.833 398.833,465.167 399.5,464.5C 398.349,463.269 397.183,463.269 396,464.5C 395.503,466.81 395.337,469.143 395.5,471.5C 390.407,471.612 390.407,472.445 395.5,474C 393.616,476.884 391.116,479.051 388,480.5C 387.667,480.167 387.333,479.833 387,479.5C 386.077,480.759 385.243,482.092 384.5,483.5C 383.738,482.372 383.071,481.205 382.5,480C 380.19,479.503 377.857,479.337 375.5,479.5C 375.904,469.466 371.904,467.132 363.5,472.5C 363.808,474.924 363.474,477.257 362.5,479.5C 361.571,478.311 361.238,476.978 361.5,475.5C 357.166,475.551 353.5,477.051 350.5,480C 347.854,480.497 345.187,480.664 342.5,480.5C 354.353,474.591 366.353,468.758 378.5,463C 385.386,459.114 390.553,453.614 394,446.5C 394.667,443.833 394.667,441.167 394,438.5C 371.239,408.109 365.906,374.775 378,338.5C 380.504,332.32 383.004,326.153 385.5,320C 384.474,316.117 382.807,312.617 380.5,309.5C 368.686,287.554 358.853,264.887 351,241.5C 404.995,192.795 467.162,178.295 537.5,198C 564.563,207.687 588.563,222.187 609.5,241.5C 600.74,261.785 591.407,281.785 581.5,301.5 Z"/></g>
<g><path style="opacity:1" fill="#fdfcfd" d="M 580.5,248.5 C 569.398,263.718 558.065,278.718 546.5,293.5C 532.219,282.696 516.219,275.696 498.5,272.5C 477.229,269.207 456.562,271.707 436.5,280C 428.343,284.245 420.343,288.745 412.5,293.5C 407.214,286.375 401.714,279.375 396,272.5C 390.31,264.446 385.144,256.113 380.5,247.5C 437.868,204.454 498.202,199.954 561.5,234C 568.303,238.313 574.636,243.147 580.5,248.5 Z"/></g>
<g><path style="opacity:1" fill="#311a50" d="M 475.5,247.5 C 476.485,251.634 476.818,255.968 476.5,260.5C 480.833,260.5 485.167,260.5 489.5,260.5C 489.5,255.833 489.5,251.167 489.5,246.5C 494.5,246.5 499.5,246.5 504.5,246.5C 504.5,242.5 504.5,238.5 504.5,234.5C 499.5,234.5 494.5,234.5 489.5,234.5C 489.5,229.833 489.5,225.167 489.5,220.5C 485.5,220.5 481.5,220.5 477.5,220.5C 477.777,225.233 477.443,229.9 476.5,234.5C 471.814,235.779 467.147,235.779 462.5,234.5C 461.508,238.783 461.174,243.116 461.5,247.5C 460.514,243.03 460.181,238.363 460.5,233.5C 465.5,233.5 470.5,233.5 475.5,233.5C 475.5,228.833 475.5,224.167 475.5,219.5C 480.5,219.5 485.5,219.5 490.5,219.5C 490.5,224.167 490.5,228.833 490.5,233.5C 495.5,233.5 500.5,233.5 505.5,233.5C 505.5,238.167 505.5,242.833 505.5,247.5C 500.5,247.5 495.5,247.5 490.5,247.5C 490.5,252.167 490.5,256.833 490.5,261.5C 485.5,261.5 480.5,261.5 475.5,261.5C 475.5,256.833 475.5,252.167 475.5,247.5 Z"/></g>
<g><path style="opacity:1" fill="#31135b" d="M 475.5,247.5 C 470.833,247.5 466.167,247.5 461.5,247.5C 461.174,243.116 461.508,238.783 462.5,234.5C 467.147,235.779 471.814,235.779 476.5,234.5C 477.443,229.9 477.777,225.233 477.5,220.5C 481.5,220.5 485.5,220.5 489.5,220.5C 489.5,225.167 489.5,229.833 489.5,234.5C 494.5,234.5 499.5,234.5 504.5,234.5C 504.5,238.5 504.5,242.5 504.5,246.5C 499.5,246.5 494.5,246.5 489.5,246.5C 489.5,251.167 489.5,255.833 489.5,260.5C 485.167,260.5 480.833,260.5 476.5,260.5C 476.818,255.968 476.485,251.634 475.5,247.5 Z"/></g>
<g><path style="opacity:1" fill="#fdfcfe" d="M 611.5,271.5 C 619.617,276.443 627.617,281.61 635.5,287C 639.418,287.667 643.084,288.5 646.5,289.5C 690.121,315.288 724.955,349.954 751,393.5C 775.868,437.34 785.702,484.34 780.5,534.5C 771.32,604.548 739.987,662.215 686.5,707.5C 668.71,722.297 649.377,734.631 628.5,744.5C 611.142,752.391 593.475,759.058 575.5,764.5C 561.791,767.548 548.125,770.214 534.5,772.5C 517.217,774.202 499.884,774.869 482.5,774.5C 480.167,774.5 477.833,774.5 475.5,774.5C 471.702,773.517 467.702,773.183 463.5,773.5C 451.048,770.686 438.382,768.353 425.5,766.5C 416.937,763.907 408.27,761.241 399.5,758.5C 374.68,750.897 351.68,739.397 330.5,724C 323.713,718.616 317.38,712.782 311.5,706.5C 312.398,705.842 313.398,705.176 314.5,704.5C 313.726,703.289 312.893,703.289 312,704.5C 311.316,703.216 311.483,702.049 312.5,701C 314.622,702.298 316.956,702.798 319.5,702.5C 323.019,705.421 326.686,708.087 330.5,710.5C 346.367,722.465 364.033,730.799 383.5,735.5C 394.493,739.155 405.827,741.821 417.5,743.5C 424.576,745.415 431.909,746.415 439.5,746.5C 440.609,747.29 441.942,747.79 443.5,748C 488.396,751.726 532.396,747.392 575.5,735C 605.516,724.932 633.182,710.599 658.5,692C 664.095,687.384 669.429,682.55 674.5,677.5C 717.961,641.257 744.961,595.257 755.5,539.5C 759.057,525.705 760.724,511.538 760.5,497C 760.389,485.78 759.556,474.613 758,463.5C 757.25,458.924 756.083,454.591 754.5,450.5C 754.15,445.46 752.816,440.794 750.5,436.5C 742.078,408.989 728.911,383.989 711,361.5C 687.293,332.936 659.793,308.936 628.5,289.5C 623.125,285.473 617.459,281.807 611.5,278.5C 610.386,277.115 609.386,275.615 608.5,274C 609.571,273.148 610.571,272.315 611.5,271.5 Z"/></g>
<g><path style="opacity:1" fill="#32115f" d="M 498.5,272.5 C 516.219,275.696 532.219,282.696 546.5,293.5C 546.5,293.833 546.5,294.167 546.5,294.5C 546.179,296.048 545.179,296.715 543.5,296.5C 543.5,297.5 543.5,298.5 543.5,299.5C 545.451,299.227 546.951,299.893 548,301.5C 549.223,299.015 550.723,298.848 552.5,301C 549.748,302.751 546.748,303.584 543.5,303.5C 545.167,310.5 542.5,313.167 535.5,311.5C 535.5,308.833 535.5,306.167 535.5,303.5C 530.167,303.5 524.833,303.5 519.5,303.5C 519.5,300.833 519.5,298.167 519.5,295.5C 516.833,295.5 514.167,295.5 511.5,295.5C 511.5,299.5 511.5,303.5 511.5,307.5C 509.876,307.36 508.71,308.027 508,309.5C 507.667,308.833 507.333,308.167 507,307.5C 505.833,308.667 504.667,309.833 503.5,311C 504.502,312.156 505.502,312.656 506.5,312.5C 500.52,322.658 493.187,331.824 484.5,340C 474.453,348.011 464.12,355.511 453.5,362.5C 452.571,363.315 451.571,364.148 450.5,365C 451.5,365.333 452.5,365.667 453.5,366C 453.167,366.333 452.833,366.667 452.5,367C 455.379,368.666 456.212,371.166 455,374.5C 453.175,375.103 451.341,375.77 449.5,376.5C 452.616,376.92 455.283,377.92 457.5,379.5C 448.987,383.008 440.32,386.342 431.5,389.5C 430.011,387.884 429.011,385.884 428.5,383.5C 427.52,380.914 427.187,378.247 427.5,375.5C 425.801,375.66 424.134,375.494 422.5,375C 425.079,373.388 425.079,371.888 422.5,370.5C 421.05,371.85 420.383,373.516 420.5,375.5C 419.167,375.5 417.833,375.5 416.5,375.5C 415.771,380.13 415.437,384.797 415.5,389.5C 413.396,389.201 411.396,389.534 409.5,390.5C 408.636,392.197 407.303,393.363 405.5,394C 404.086,397.5 402.419,400.667 400.5,403.5C 401.441,396.624 403.775,390.291 407.5,384.5C 414.121,373.366 422.454,363.532 432.5,355C 442.5,347.333 452.5,339.667 462.5,332C 473.487,323.518 482.487,313.351 489.5,301.5C 489,301.167 488.5,300.833 488,300.5C 483.25,301.95 478.417,302.95 473.5,303.5C 478.076,301.847 482.742,300.18 487.5,298.5C 490.263,298.996 491.93,300.662 492.5,303.5C 494.126,299.629 495.126,295.629 495.5,291.5C 494.167,291.5 492.833,291.5 491.5,291.5C 491.5,290.167 491.5,288.833 491.5,287.5C 482.167,287.5 472.833,287.5 463.5,287.5C 463.5,284.833 463.5,282.167 463.5,279.5C 464.978,279.762 466.311,279.429 467.5,278.5C 465.995,277.158 465.328,275.492 465.5,273.5C 467.144,273.286 468.644,273.62 470,274.5C 470.5,274 471,273.5 471.5,273C 480.494,272.5 489.494,272.334 498.5,272.5 Z"/></g>
<g><path style="opacity:1" fill="#dfd1f3" d="M 610.5,265.5 C 622.446,272.634 634.446,280.634 646.5,289.5C 643.084,288.5 639.418,287.667 635.5,287C 627.617,281.61 619.617,276.443 611.5,271.5C 610.855,270.188 609.855,269.188 608.5,268.5C 607.571,267.311 607.238,265.978 607.5,264.5C 608.791,264.263 609.791,264.596 610.5,265.5 Z"/></g>
<g><path style="opacity:1" fill="#d7c8ed" d="M 611.5,278.5 C 617.459,281.807 623.125,285.473 628.5,289.5C 626.451,288.359 624.451,288.359 622.5,289.5C 618.876,287.049 615.376,284.383 612,281.5C 611.601,281.728 611.435,282.062 611.5,282.5C 610.038,281.542 608.705,280.376 607.5,279C 608.996,278.493 610.163,278.993 611,280.5C 611.464,279.906 611.631,279.239 611.5,278.5 Z"/></g>
<g><path style="opacity:1" fill="#cec0f8" d="M 380.5,247.5 C 385.144,256.113 390.31,264.446 396,272.5C 401.714,279.375 407.214,286.375 412.5,293.5C 409.358,296.469 406.025,299.302 402.5,302C 401.551,302.617 400.718,302.451 400,301.5C 391.38,285.257 383.546,268.59 376.5,251.5C 377.521,249.812 378.855,248.479 380.5,247.5 Z"/></g>
<g><path style="opacity:1" fill="#cac1f0" d="M 580.5,248.5 C 581.695,248.866 582.361,249.699 582.5,251C 575.632,268.901 567.299,286.068 557.5,302.5C 553.815,299.809 550.148,297.142 546.5,294.5C 546.5,294.167 546.5,293.833 546.5,293.5C 558.065,278.718 569.398,263.718 580.5,248.5 Z"/></g>
<g><path style="opacity:1" fill="#fdfdfd" d="M 581.5,301.5 C 587.333,305.14 593.333,308.64 599.5,312C 616.72,326.886 632.22,343.386 646,361.5C 650.319,369.468 654.652,377.468 659,385.5C 662.063,395.231 666.063,404.565 671,413.5C 672.243,422.131 673.576,430.465 675,438.5C 676.959,452.168 676.959,465.835 675,479.5C 672.412,487.246 670.912,495.246 670.5,503.5C 666.324,515.39 661.324,527.224 655.5,539C 653.925,541.076 651.925,542.576 649.5,543.5C 640.238,524.727 627.404,508.727 611,495.5C 612.979,485.959 612.979,476.293 611,466.5C 601.048,440.08 581.881,425.58 553.5,423C 578.115,392.087 584.115,357.754 571.5,320C 574.198,313.433 577.532,307.266 581.5,301.5 Z"/></g>
<g><path style="opacity:1" fill="#fdfdfe" d="M 380.5,309.5 C 382.807,312.617 384.474,316.117 385.5,320C 383.004,326.153 380.504,332.32 378,338.5C 365.906,374.775 371.239,408.109 394,438.5C 394.667,441.167 394.667,443.833 394,446.5C 390.553,453.614 385.386,459.114 378.5,463C 366.353,468.758 354.353,474.591 342.5,480.5C 331.071,485.882 321.071,493.215 312.5,502.5C 306.512,507.49 301.179,513.157 296.5,519.5C 293.508,521.335 291.342,520.669 290,517.5C 278.789,460.846 289.122,408.846 321,361.5C 322.991,359.543 324.991,357.543 327,355.5C 329.293,352.009 331.46,348.343 333.5,344.5C 340.403,337.765 347.069,330.932 353.5,324C 357.345,320.248 361.678,317.248 366.5,315C 367.337,313.989 367.67,312.822 367.5,311.5C 370.845,310.743 373.679,309.076 376,306.5C 376.918,308.376 378.418,309.376 380.5,309.5 Z"/></g>
<g><path style="opacity:1" fill="#351760" d="M 610.5,265.5 C 653.981,277.484 691.148,299.817 722,332.5C 755.273,367.69 778.773,408.69 792.5,455.5C 790.856,455.714 789.356,455.38 788,454.5C 786.681,456.487 784.848,457.654 782.5,458C 781.443,460.339 780.11,462.505 778.5,464.5C 778.846,465.696 779.346,465.696 780,464.5C 782.407,487.107 783.074,509.773 782,532.5C 781.722,533.416 781.222,534.082 780.5,534.5C 785.702,484.34 775.868,437.34 751,393.5C 724.955,349.954 690.121,315.288 646.5,289.5C 634.446,280.634 622.446,272.634 610.5,265.5 Z"/></g>
<g><path style="opacity:1" fill="#8051d6" d="M 407.5,384.5 C 406.12,384.038 405.453,383.038 405.5,381.5C 406.743,371.193 409.243,361.193 413,351.5C 417.674,346.074 421.174,340.407 423.5,334.5C 428.681,329.157 434.348,324.323 440.5,320C 451.045,313.394 462.045,307.894 473.5,303.5C 478.417,302.95 483.25,301.95 488,300.5C 488.5,300.833 489,301.167 489.5,301.5C 482.487,313.351 473.487,323.518 462.5,332C 452.5,339.667 442.5,347.333 432.5,355C 422.454,363.532 414.121,373.366 407.5,384.5 Z"/></g>
<g><path style="opacity:1" fill="#c5b4de" d="M 520.5,331.5 C 519.5,330.167 518.5,330.167 517.5,331.5C 519.634,323.825 520.634,323.825 520.5,331.5 Z"/></g>
<g><path style="opacity:1" fill="#fdfdfe" d="M 520.5,331.5 C 521.375,339.907 523.375,347.907 526.5,355.5C 527.698,360.228 529.698,364.561 532.5,368.5C 535.828,374.484 539.661,380.15 544,385.5C 542.3,407.068 533.467,425.235 517.5,440C 486.434,459.386 459.267,454.886 436,426.5C 432.102,420.636 429.268,414.303 427.5,407.5C 448.598,393.585 469.598,379.418 490.5,365C 496.333,359.167 502.167,353.333 508,347.5C 510.358,344.778 512.191,341.778 513.5,338.5C 514.584,335.996 515.917,333.663 517.5,331.5C 518.5,330.167 519.5,330.167 520.5,331.5 Z"/></g>
<g><path style="opacity:1" fill="#f1e7f7" d="M 453.5,362.5 C 464.12,355.511 474.453,348.011 484.5,340C 493.187,331.824 500.52,322.658 506.5,312.5C 508.132,309.791 508.632,310.125 508,313.5C 497.219,338.118 479.052,354.451 453.5,362.5 Z"/></g>
<g><path style="opacity:1" fill="#341366" d="M 539.5,317.5 C 538.187,328.743 538.687,340.076 541,351.5C 542.696,357.886 545.196,363.886 548.5,369.5C 549.657,371.138 550.824,372.804 552,374.5C 554.379,363.544 553.879,352.877 550.5,342.5C 549.451,338.735 548.118,335.068 546.5,331.5C 548.752,331.916 550.252,333.249 551,335.5C 551.352,340.757 552.852,345.59 555.5,350C 555.12,355.759 555.12,361.593 555.5,367.5C 554.809,370.198 554.142,372.865 553.5,375.5C 551.5,375.5 549.5,375.5 547.5,375.5C 547.895,372.477 546.895,371.477 544.5,372.5C 543.506,368.548 542.84,364.548 542.5,360.5C 541.5,360.5 540.5,360.5 539.5,360.5C 539.719,361.675 539.386,362.675 538.5,363.5C 537.851,361.376 537.017,359.376 536,357.5C 535.721,361.17 535.888,364.837 536.5,368.5C 535.167,368.5 533.833,368.5 532.5,368.5C 529.698,364.561 527.698,360.228 526.5,355.5C 525.481,348.493 528.481,345.826 535.5,347.5C 535.971,343.644 536.638,339.811 537.5,336C 536.734,334.203 536.068,332.369 535.5,330.5C 536.981,325.614 537.814,320.614 538,315.5C 538.717,316.044 539.217,316.711 539.5,317.5 Z"/></g>
<g><path style="opacity:1" fill="#7e56cb" d="M 539.5,317.5 C 541.82,322.14 544.153,326.807 546.5,331.5C 548.118,335.068 549.451,338.735 550.5,342.5C 550.41,347.389 549.244,347.723 547,343.5C 547.908,350.43 548.741,357.43 549.5,364.5C 549.493,366.369 549.16,368.036 548.5,369.5C 545.196,363.886 542.696,357.886 541,351.5C 538.687,340.076 538.187,328.743 539.5,317.5 Z"/></g>
<g><path style="opacity:1" fill="#bcaaed" d="M 628.5,289.5 C 659.793,308.936 687.293,332.936 711,361.5C 728.911,383.989 742.078,408.989 750.5,436.5C 747.066,429.876 744.4,422.876 742.5,415.5C 741.5,415.5 740.5,415.5 739.5,415.5C 739.649,414.448 739.483,413.448 739,412.5C 738.667,412.833 738.333,413.167 738,413.5C 737.692,412.692 737.192,412.025 736.5,411.5C 735.63,413.407 734.63,415.24 733.5,417C 733.645,417.772 733.978,418.439 734.5,419C 731.518,419.498 728.518,419.665 725.5,419.5C 726.702,415.952 727.369,412.285 727.5,408.5C 725.089,408.137 723.589,409.137 723,411.5C 722.51,410.207 722.343,408.873 722.5,407.5C 720.801,407.527 719.467,408.194 718.5,409.5C 706.548,371.712 685.548,339.878 655.5,314C 644.432,305.812 633.432,297.646 622.5,289.5C 624.451,288.359 626.451,288.359 628.5,289.5 Z"/></g>
<g><path style="opacity:1" fill="#673aab" d="M 423.5,334.5 C 421.174,340.407 417.674,346.074 413,351.5C 409.243,361.193 406.743,371.193 405.5,381.5C 405.453,383.038 406.12,384.038 407.5,384.5C 403.775,390.291 401.441,396.624 400.5,403.5C 399.674,407.982 399.174,412.649 399,417.5C 390.751,396.979 392.084,376.979 403,357.5C 408.614,348.72 415.448,341.054 423.5,334.5 Z"/></g>
<g><path style="opacity:1" fill="#5e37a7" d="M 550.5,342.5 C 553.879,352.877 554.379,363.544 552,374.5C 550.824,372.804 549.657,371.138 548.5,369.5C 549.16,368.036 549.493,366.369 549.5,364.5C 548.741,357.43 547.908,350.43 547,343.5C 549.244,347.723 550.41,347.389 550.5,342.5 Z"/></g>
<g><path style="opacity:1" fill="#cec5f3" d="M 513.5,338.5 C 512.191,341.778 510.358,344.778 508,347.5C 502.167,353.333 496.333,359.167 490.5,365C 469.598,379.418 448.598,393.585 427.5,407.5C 425.859,402.939 424.526,398.272 423.5,393.5C 426.442,392.696 429.109,391.362 431.5,389.5C 440.32,386.342 448.987,383.008 457.5,379.5C 468.14,376.014 478.14,371.18 487.5,365C 497.066,356.935 505.733,348.102 513.5,338.5 Z"/></g>
<g><path style="opacity:1" fill="#d9c8ec" d="M 549.5,442.5 C 551.948,441.527 554.615,441.194 557.5,441.5C 560.553,441.111 563.22,441.777 565.5,443.5C 560.213,442.658 554.88,442.324 549.5,442.5 Z"/></g>
<g><path style="opacity:1" fill="#fefefe" d="M 549.5,442.5 C 554.88,442.324 560.213,442.658 565.5,443.5C 588.972,451.105 598.639,467.105 594.5,491.5C 581.426,515.521 561.426,524.021 534.5,517C 514.799,504.195 508.966,486.695 517,464.5C 525.03,452.961 535.864,445.627 549.5,442.5 Z"/></g>
<g><path style="opacity:1" fill="#33135e" d="M 252.5,499.5 C 251.71,500.609 251.21,501.942 251,503.5C 250.5,518.163 250.333,532.83 250.5,547.5C 249.818,551.2 248.651,554.867 247,558.5C 244.619,559.435 242.119,559.768 239.5,559.5C 239.5,556.833 239.5,554.167 239.5,551.5C 236.833,551.5 234.167,551.5 231.5,551.5C 231.5,548.833 231.5,546.167 231.5,543.5C 234.167,543.5 236.833,543.5 239.5,543.5C 239.5,535.5 239.5,527.5 239.5,519.5C 233.575,519.192 227.741,519.525 222,520.5C 221.667,531.5 221.333,542.5 221,553.5C 220.5,536.503 220.333,519.503 220.5,502.5C 228.068,438.347 256.734,386.014 306.5,345.5C 293.342,366.131 281.842,388.131 272,411.5C 261.711,439.989 255.211,469.322 252.5,499.5 Z"/></g>
<g><path style="opacity:1" fill="#d2c8f5" d="M 491.5,574.5 C 500.632,565.869 509.632,557.036 518.5,548C 514.084,545.588 510.251,542.422 507,538.5C 503,533.167 499,527.833 495,522.5C 492.779,516.39 489.779,510.723 486,505.5C 483.94,498.6 481.274,491.933 478,485.5C 467.584,472.864 456.918,472.531 446,484.5C 443.945,488.656 441.445,492.322 438.5,495.5C 443.211,485.7 445.878,475.366 446.5,464.5C 447.166,460.979 447.833,457.313 448.5,453.5C 462.569,464.358 478.569,469.191 496.5,468C 495.773,469.399 495.273,470.899 495,472.5C 492.05,504.778 505.55,526.944 535.5,539C 531.226,543.274 527.726,548.107 525,553.5C 521.95,564.773 516.45,574.606 508.5,583C 505.581,583.552 502.914,582.885 500.5,581C 497.079,579.301 494.079,577.135 491.5,574.5 Z"/></g>
<g><path style="opacity:1" fill="#33145f" d="M 622.5,289.5 C 633.432,297.646 644.432,305.812 655.5,314C 685.548,339.878 706.548,371.712 718.5,409.5C 735.491,468.203 729.157,524.203 699.5,577.5C 698.076,575.845 696.243,574.512 694,573.5C 691.483,576.44 689.316,579.606 687.5,583C 686.207,583.49 684.873,583.657 683.5,583.5C 682.833,588.833 682.167,588.833 681.5,583.5C 680.167,583.5 678.833,583.5 677.5,583.5C 678.342,580.846 678.842,578.179 679,575.5C 676.88,578.43 674.047,580.263 670.5,581C 671.576,582.726 671.743,584.559 671,586.5C 669.956,585.377 669.29,584.044 669,582.5C 667.871,584.141 666.371,585.141 664.5,585.5C 684.63,558.883 696.796,528.883 701,495.5C 708.243,424.563 687.909,362.896 640,310.5C 630.605,300.937 621.105,291.604 611.5,282.5C 611.435,282.062 611.601,281.728 612,281.5C 615.376,284.383 618.876,287.049 622.5,289.5 Z"/></g>
<g><path style="opacity:1" fill="#fdfdfe" d="M 491.5,574.5 C 482.013,569.254 473.013,563.254 464.5,556.5C 454.356,547.864 444.023,539.364 433.5,531C 429.38,526.976 425.38,522.976 421.5,519C 427.795,511.559 433.462,503.725 438.5,495.5C 441.445,492.322 443.945,488.656 446,484.5C 456.918,472.531 467.584,472.864 478,485.5C 481.274,491.933 483.94,498.6 486,505.5C 489.779,510.723 492.779,516.39 495,522.5C 499,527.833 503,533.167 507,538.5C 510.251,542.422 514.084,545.588 518.5,548C 509.632,557.036 500.632,565.869 491.5,574.5 Z"/></g>
<g><path style="opacity:1" fill="#8252d0" d="M 421.5,441.5 C 420.511,469.397 409.178,492.397 387.5,510.5C 387.879,506.418 386.879,502.751 384.5,499.5C 383.571,500.689 383.238,502.022 383.5,503.5C 380.753,503.813 378.086,503.48 375.5,502.5C 376.167,501.833 376.833,501.167 377.5,500.5C 375.892,499.682 374.225,499.015 372.5,498.5C 370.083,500.107 367.416,501.107 364.5,501.5C 368.622,498.266 372.955,495.266 377.5,492.5C 385.33,488.081 392.663,482.914 399.5,477C 399.272,476.601 398.938,476.435 398.5,476.5C 399.833,474.833 401.167,473.167 402.5,471.5C 412.118,463.555 418.452,453.555 421.5,441.5 Z"/></g>
<g><path style="opacity:1" fill="#6033a8" d="M 389.5,515.5 C 389.631,514.624 389.298,513.957 388.5,513.5C 385.312,516.576 381.645,518.41 377.5,519C 381,516.331 384.333,513.498 387.5,510.5C 409.178,492.397 420.511,469.397 421.5,441.5C 422.223,436.16 423.057,430.827 424,425.5C 434.056,463.842 422.556,493.842 389.5,515.5 Z"/></g>
<g><path style="opacity:1" fill="#c1b3e9" d="M 754.5,450.5 C 756.083,454.591 757.25,458.924 758,463.5C 759.556,474.613 760.389,485.78 760.5,497C 760.724,511.538 759.057,525.705 755.5,539.5C 755.517,533.36 756.351,527.36 758,521.5C 758.667,508.5 758.667,495.5 758,482.5C 756.978,481.646 756.145,480.646 755.5,479.5C 756.112,477.057 756.445,474.557 756.5,472C 754.945,464.958 754.278,457.791 754.5,450.5 Z"/></g>
<g><path style="opacity:1" fill="#331062" d="M 446.5,464.5 C 445.878,475.366 443.211,485.7 438.5,495.5C 433.462,503.725 427.795,511.559 421.5,519C 425.38,522.976 429.38,526.976 433.5,531C 444.023,539.364 454.356,547.864 464.5,556.5C 464.196,557.15 463.863,557.817 463.5,558.5C 465.435,559.068 466.768,560.235 467.5,562C 466.411,564.624 464.411,566.124 461.5,566.5C 463.067,568.896 463.9,571.563 464,574.5C 465.117,576.124 466.617,577.124 468.5,577.5C 471.939,576.331 475.272,574.998 478.5,573.5C 480.172,576.83 479.505,579.497 476.5,581.5C 477.554,583.201 478.554,584.868 479.5,586.5C 453.217,572.741 429.883,554.907 409.5,533C 408.167,532.333 406.833,532.333 405.5,533C 394.238,540.454 382.905,547.621 371.5,554.5C 368.262,555.738 365.262,557.404 362.5,559.5C 358.76,561.794 355.26,564.46 352,567.5C 347.179,589.553 347.512,611.553 353,633.5C 354.428,637.307 355.928,640.974 357.5,644.5C 359.288,651.399 361.622,658.066 364.5,664.5C 363.18,663.058 361.514,662.392 359.5,662.5C 360.014,660.488 360.18,658.488 360,656.5C 356.838,660.331 355.338,659.997 355.5,655.5C 356.675,655.719 357.675,655.386 358.5,654.5C 357.167,653.5 355.833,652.5 354.5,651.5C 354.064,648.908 353.064,646.575 351.5,644.5C 350.594,641.589 350.594,638.422 351.5,635C 350.965,632.891 349.965,632.391 348.5,633.5C 347.158,631.995 345.492,631.328 343.5,631.5C 344.839,624.127 344.672,616.794 343,609.5C 341.246,607.75 339.079,607.083 336.5,607.5C 336.244,602.517 335.91,597.517 335.5,592.5C 333.639,593.528 332.305,595.028 331.5,597C 330.207,597.49 328.873,597.657 327.5,597.5C 327.5,595.5 327.5,593.5 327.5,591.5C 324.833,591.5 322.167,591.5 319.5,591.5C 319.5,596.833 319.5,602.167 319.5,607.5C 317.5,607.5 315.5,607.5 313.5,607.5C 313.813,604.753 313.48,602.086 312.5,599.5C 312.167,600 311.833,600.5 311.5,601C 311.113,605.787 310.946,610.62 311,615.5C 310.333,614.833 309.667,614.167 309,613.5C 306.82,618.026 306.654,622.36 308.5,626.5C 308.064,629.179 307.564,631.845 307,634.5C 305.86,637.018 304.694,637.018 303.5,634.5C 304.492,626.684 304.826,618.684 304.5,610.5C 309.623,581.097 324.289,557.597 348.5,540C 362.194,531.822 375.861,523.655 389.5,515.5C 422.556,493.842 434.056,463.842 424,425.5C 423.057,430.827 422.223,436.16 421.5,441.5C 418.452,453.555 412.118,463.555 402.5,471.5C 402.34,469.801 402.506,468.134 403,466.5C 408.254,464.847 408.421,463.847 403.5,463.5C 403.5,460.833 403.5,458.167 403.5,455.5C 406.363,456.353 408.696,458.02 410.5,460.5C 413.633,455.899 415.966,450.899 417.5,445.5C 416.975,444.808 416.308,444.308 415.5,444C 416.931,442.438 418.431,440.938 420,439.5C 420.361,436.475 420.861,433.475 421.5,430.5C 420.106,428.354 419.44,426.021 419.5,423.5C 416.833,423.5 414.167,423.5 411.5,423.5C 411.5,422.167 411.5,420.833 411.5,419.5C 414.167,419.5 416.833,419.5 419.5,419.5C 419.5,418.167 419.5,416.833 419.5,415.5C 420.5,415.5 421.5,415.5 422.5,415.5C 422.606,412.892 423.772,410.892 426,409.5C 426.208,411.859 426.374,414.026 426.5,416C 425.5,416.833 424.5,417.667 423.5,418.5C 424.325,419.386 425.325,419.719 426.5,419.5C 427.472,430.636 428.805,441.802 430.5,453C 429.892,454.231 429.559,455.564 429.5,457C 431.827,460.089 431.827,463.089 429.5,466C 432.381,468.233 434.381,467.566 435.5,464C 439.358,463.19 443.024,463.357 446.5,464.5 Z"/></g>
<g><path style="opacity:1" fill="#cda5f7" d="M 398.5,476.5 C 398.938,476.435 399.272,476.601 399.5,477C 392.663,482.914 385.33,488.081 377.5,492.5C 377.672,491.508 377.338,490.842 376.5,490.5C 384.474,486.846 391.807,482.179 398.5,476.5 Z"/></g>
<g><path style="opacity:1" fill="#341265" d="M 402.5,471.5 C 401.167,473.167 399.833,474.833 398.5,476.5C 391.807,482.179 384.474,486.846 376.5,490.5C 358.75,497.539 342.75,507.373 328.5,520C 326.371,522.439 324.371,524.939 322.5,527.5C 318.025,532.437 314.025,537.77 310.5,543.5C 305.682,550.946 302.015,558.946 299.5,567.5C 297.214,572.647 295.547,577.981 294.5,583.5C 293.912,577.647 294.912,572.147 297.5,567C 295.882,561.996 295.215,556.829 295.5,551.5C 297.792,551.244 299.959,551.577 302,552.5C 302.81,550.694 303.976,549.194 305.5,548C 305.012,546.416 304.012,545.249 302.5,544.5C 303.454,538.896 303.788,533.229 303.5,527.5C 304.833,527.5 306.167,527.5 307.5,527.5C 307.381,522.788 307.381,518.288 307.5,514C 306.376,513.751 305.376,513.251 304.5,512.5C 307.594,509.417 310.261,506.084 312.5,502.5C 321.071,493.215 331.071,485.882 342.5,480.5C 345.187,480.664 347.854,480.497 350.5,480C 353.5,477.051 357.166,475.551 361.5,475.5C 361.238,476.978 361.571,478.311 362.5,479.5C 363.474,477.257 363.808,474.924 363.5,472.5C 371.904,467.132 375.904,469.466 375.5,479.5C 377.857,479.337 380.19,479.503 382.5,480C 383.071,481.205 383.738,482.372 384.5,483.5C 385.243,482.092 386.077,480.759 387,479.5C 387.333,479.833 387.667,480.167 388,480.5C 391.116,479.051 393.616,476.884 395.5,474C 390.407,472.445 390.407,471.612 395.5,471.5C 395.337,469.143 395.503,466.81 396,464.5C 397.183,463.269 398.349,463.269 399.5,464.5C 398.833,465.167 398.167,465.833 397.5,466.5C 397.678,469.804 399.344,471.471 402.5,471.5 Z"/></g>
<g><path style="opacity:1" fill="#8454d7" d="M 387.5,510.5 C 384.333,513.498 381,516.331 377.5,519C 381.645,518.41 385.312,516.576 388.5,513.5C 389.298,513.957 389.631,514.624 389.5,515.5C 375.861,523.655 362.194,531.822 348.5,540C 324.289,557.597 309.623,581.097 304.5,610.5C 299.63,592.41 300.63,574.576 307.5,557C 307.389,555.278 306.889,555.112 306,556.5C 303.458,562.466 301.125,568.466 299,574.5C 298.982,572.203 299.149,569.869 299.5,567.5C 302.015,558.946 305.682,550.946 310.5,543.5C 310.435,543.938 310.601,544.272 311,544.5C 312.719,541.712 314.885,539.379 317.5,537.5C 322.014,535.254 325.681,532.087 328.5,528C 332.647,527.852 335.814,526.018 338,522.5C 338.604,524.686 339.77,524.852 341.5,523C 342.833,520.667 344.167,518.333 345.5,516C 350.733,515.927 350.733,516.761 345.5,518.5C 347.396,519.466 349.396,519.799 351.5,519.5C 350.085,514.788 351.752,511.455 356.5,509.5C 357.362,508.234 358.029,506.901 358.5,505.5C 360.147,503.674 362.147,502.34 364.5,501.5C 367.416,501.107 370.083,500.107 372.5,498.5C 374.225,499.015 375.892,499.682 377.5,500.5C 376.833,501.167 376.167,501.833 375.5,502.5C 378.086,503.48 380.753,503.813 383.5,503.5C 383.238,502.022 383.571,500.689 384.5,499.5C 386.879,502.751 387.879,506.418 387.5,510.5 Z"/></g>
<g><path style="opacity:1" fill="#331161" d="M 312.5,502.5 C 310.261,506.084 307.594,509.417 304.5,512.5C 305.376,513.251 306.376,513.751 307.5,514C 307.381,518.288 307.381,522.788 307.5,527.5C 306.167,527.5 304.833,527.5 303.5,527.5C 303.788,533.229 303.454,538.896 302.5,544.5C 304.012,545.249 305.012,546.416 305.5,548C 303.976,549.194 302.81,550.694 302,552.5C 299.959,551.577 297.792,551.244 295.5,551.5C 295.215,556.829 295.882,561.996 297.5,567C 294.912,572.147 293.912,577.647 294.5,583.5C 292.919,600.207 295.252,616.207 301.5,631.5C 297.586,629.544 296.086,626.544 297,622.5C 295.748,620.999 294.748,619.332 294,617.5C 292.951,619.107 291.451,619.773 289.5,619.5C 289.762,620.978 289.429,622.311 288.5,623.5C 287.167,620.833 285.833,620.833 284.5,623.5C 283.52,620.914 283.187,618.247 283.5,615.5C 281.508,615.328 279.842,615.995 278.5,617.5C 277.754,613.65 276.587,609.983 275,606.5C 274.946,593.005 275.446,579.672 276.5,566.5C 277.477,560.395 278.977,554.395 281,548.5C 285.655,538.52 290.822,528.854 296.5,519.5C 301.179,513.157 306.512,507.49 312.5,502.5 Z"/></g>
<g><path style="opacity:1" fill="#432b66" d="M 252.5,499.5 C 251.167,518.167 251.167,536.833 252.5,555.5C 250.96,553.162 250.294,550.495 250.5,547.5C 250.333,532.83 250.5,518.163 251,503.5C 251.21,501.942 251.71,500.609 252.5,499.5 Z"/></g>
<g><path style="opacity:1" fill="#fefefe" d="M 606.5,515.5 C 618.631,526.102 626.964,539.102 631.5,554.5C 634.279,583.931 625.446,609.264 605,630.5C 604.107,631.711 603.274,631.711 602.5,630.5C 609.609,617.183 611.942,603.183 609.5,588.5C 608.721,581.047 606.555,574.047 603,567.5C 602.025,581.397 598.859,594.73 593.5,607.5C 578.454,626.877 560.788,643.544 540.5,657.5C 531.239,662.797 521.572,667.631 511.5,672C 496.011,677.997 480.011,681.497 463.5,682.5C 450.753,682.899 439.086,679.732 428.5,673C 416.207,660.068 416.54,647.568 429.5,635.5C 433.474,633.425 437.808,632.425 442.5,632.5C 458.858,631.373 475.191,629.873 491.5,628C 515.525,620.967 534.025,606.8 547,585.5C 552.077,574.347 557.41,563.347 563,552.5C 566.534,548.631 570.367,545.131 574.5,542C 585.136,536.206 594.469,528.706 602.5,519.5C 603.429,518.311 603.762,516.978 603.5,515.5C 604.5,515.5 605.5,515.5 606.5,515.5 Z"/></g>
<g><path style="opacity:1" fill="#e5c7fc" d="M 376.5,490.5 C 377.338,490.842 377.672,491.508 377.5,492.5C 372.955,495.266 368.622,498.266 364.5,501.5C 362.147,502.34 360.147,503.674 358.5,505.5C 345.831,512.837 333.831,521.171 322.5,530.5C 321.884,529.798 321.884,528.798 322.5,527.5C 324.371,524.939 326.371,522.439 328.5,520C 342.75,507.373 358.75,497.539 376.5,490.5 Z"/></g>
<g><path style="opacity:1" fill="#8a5dd3" d="M 358.5,505.5 C 358.029,506.901 357.362,508.234 356.5,509.5C 351.752,511.455 350.085,514.788 351.5,519.5C 349.396,519.799 347.396,519.466 345.5,518.5C 350.733,516.761 350.733,515.927 345.5,516C 344.167,518.333 342.833,520.667 341.5,523C 339.77,524.852 338.604,524.686 338,522.5C 335.814,526.018 332.647,527.852 328.5,528C 325.681,532.087 322.014,535.254 317.5,537.5C 319.371,535.372 321.038,533.039 322.5,530.5C 333.831,521.171 345.831,512.837 358.5,505.5 Z"/></g>
<g><path style="opacity:1" fill="#cfc2ee" d="M 557.5,441.5 C 554.615,441.194 551.948,441.527 549.5,442.5C 535.864,445.627 525.03,452.961 517,464.5C 508.966,486.695 514.799,504.195 534.5,517C 561.426,524.021 581.426,515.521 594.5,491.5C 588.074,513.497 573.241,524.831 550,525.5C 524.899,522.399 511.399,508.232 509.5,483C 510.722,467.796 517.722,456.129 530.5,448C 539.01,442.787 548.01,440.62 557.5,441.5 Z"/></g>
<g><path style="opacity:1" fill="#33155c" d="M 220.5,502.5 C 220.333,519.503 220.5,536.503 221,553.5C 221.333,542.5 221.667,531.5 222,520.5C 227.741,519.525 233.575,519.192 239.5,519.5C 239.5,527.5 239.5,535.5 239.5,543.5C 236.833,543.5 234.167,543.5 231.5,543.5C 231.5,546.167 231.5,548.833 231.5,551.5C 234.167,551.5 236.833,551.5 239.5,551.5C 239.5,554.167 239.5,556.833 239.5,559.5C 242.119,559.768 244.619,559.435 247,558.5C 248.651,554.867 249.818,551.2 250.5,547.5C 250.294,550.495 250.96,553.162 252.5,555.5C 253.303,564.534 254.303,573.534 255.5,582.5C 254.288,581.77 253.288,580.77 252.5,579.5C 251.571,580.689 251.238,582.022 251.5,583.5C 248.833,583.5 246.167,583.5 243.5,583.5C 243.5,586.167 243.5,588.833 243.5,591.5C 244.833,591.5 246.167,591.5 247.5,591.5C 247.5,592.833 247.5,594.167 247.5,595.5C 241.5,595.5 235.5,595.5 229.5,595.5C 229.662,597.527 229.495,599.527 229,601.5C 228.105,598.625 227.272,598.292 226.5,600.5C 228.344,606.053 229.677,611.72 230.5,617.5C 224.534,599.063 220.701,580.063 219,560.5C 218.333,543.833 218.333,527.167 219,510.5C 219.183,507.635 219.683,504.969 220.5,502.5 Z"/></g>
<g><path style="opacity:1" fill="#cba2f8" d="M 322.5,527.5 C 321.884,528.798 321.884,529.798 322.5,530.5C 321.038,533.039 319.371,535.372 317.5,537.5C 314.885,539.379 312.719,541.712 311,544.5C 310.601,544.272 310.435,543.938 310.5,543.5C 314.025,537.77 318.025,532.437 322.5,527.5 Z"/></g>
<g><path style="opacity:1" fill="#d2caf6" d="M 606.5,515.5 C 605.5,515.5 604.5,515.5 603.5,515.5C 603.762,516.978 603.429,518.311 602.5,519.5C 594.469,528.706 585.136,536.206 574.5,542C 570.367,545.131 566.534,548.631 563,552.5C 557.41,563.347 552.077,574.347 547,585.5C 534.025,606.8 515.525,620.967 491.5,628C 475.191,629.873 458.858,631.373 442.5,632.5C 455.489,630.615 468.489,628.115 481.5,625C 507.657,617.342 526.49,601.175 538,576.5C 539.936,564.32 545.436,554.153 554.5,546C 564.418,540.244 574.751,535.244 585.5,531C 591.833,526 597.5,520.333 602.5,514C 604.14,513.652 605.473,514.152 606.5,515.5 Z"/></g>
<g><path style="opacity:1" fill="#613ba4" d="M 362.5,559.5 C 360.617,565.043 358.45,570.376 356,575.5C 356.483,584.808 356.483,594.141 356,603.5C 355.667,604.833 355.333,606.167 355,607.5C 354.667,607.167 354.333,606.833 354,606.5C 353.762,610.222 353.262,613.889 352.5,617.5C 353.025,619.988 353.858,622.321 355,624.5C 355.241,621.711 355.908,619.044 357,616.5C 357.414,621.53 357.081,626.53 356,631.5C 355.5,632 355,632.5 354.5,633C 355.595,634.675 357.095,635.842 359,636.5C 358.012,638.478 357.512,641.145 357.5,644.5C 355.928,640.974 354.428,637.307 353,633.5C 347.512,611.553 347.179,589.553 352,567.5C 355.26,564.46 358.76,561.794 362.5,559.5 Z"/></g>
<g><path style="opacity:1" fill="#8250d9" d="M 479.5,586.5 C 483.711,589.419 488.044,592.252 492.5,595C 482.974,599.714 472.974,602.881 462.5,604.5C 448.162,606.498 435.162,603.332 423.5,595C 419.022,591.132 414.689,587.299 410.5,583.5C 409.167,581.167 407.833,578.833 406.5,576.5C 404.462,571.242 403.129,570.909 402.5,575.5C 404.698,587.617 407.198,599.617 410,611.5C 393.154,621.889 382.154,636.556 377,655.5C 358.942,628.354 353.942,599.02 362,567.5C 364.687,562.782 367.854,558.449 371.5,554.5C 382.905,547.621 394.238,540.454 405.5,533C 406.833,532.333 408.167,532.333 409.5,533C 429.883,554.907 453.217,572.741 479.5,586.5 Z"/></g>
<g><path style="opacity:1" fill="#33145f" d="M 255.5,582.5 C 260.751,626.262 276.751,665.595 303.5,700.5C 318,719.671 335.333,735.671 355.5,748.5C 363.553,754.195 372.22,758.862 381.5,762.5C 397.523,770.844 414.523,776.844 432.5,780.5C 438.88,782.656 445.547,783.99 452.5,784.5C 470.862,787.958 489.529,789.292 508.5,788.5C 512.701,788.442 513.201,789.442 510,791.5C 508.044,791.216 505.877,791.216 503.5,791.5C 503.5,792.833 503.5,794.167 503.5,795.5C 502.167,795.5 500.833,795.5 499.5,795.5C 499.5,796.833 499.5,798.167 499.5,799.5C 503.5,799.5 507.5,799.5 511.5,799.5C 511.5,797.5 511.5,795.5 511.5,793.5C 520.736,794.938 530.069,795.938 539.5,796.5C 539.833,797.167 540.167,797.833 540.5,798.5C 538.955,799.452 537.288,799.785 535.5,799.5C 535.172,804.875 535.505,810.208 536.5,815.5C 538.444,816.189 540.444,816.689 542.5,817C 538.774,818.043 539.107,818.543 543.5,818.5C 460.456,826.99 386.123,805.49 320.5,754C 276.641,717.64 246.641,672.14 230.5,617.5C 229.677,611.72 228.344,606.053 226.5,600.5C 227.272,598.292 228.105,598.625 229,601.5C 229.495,599.527 229.662,597.527 229.5,595.5C 235.5,595.5 241.5,595.5 247.5,595.5C 247.5,594.167 247.5,592.833 247.5,591.5C 246.167,591.5 244.833,591.5 243.5,591.5C 243.5,588.833 243.5,586.167 243.5,583.5C 246.167,583.5 248.833,583.5 251.5,583.5C 251.238,582.022 251.571,580.689 252.5,579.5C 253.288,580.77 254.288,581.77 255.5,582.5 Z"/></g>
<g><path style="opacity:1" fill="#bea9f1" d="M 750.5,436.5 C 752.816,440.794 754.15,445.46 754.5,450.5C 754.278,457.791 754.945,464.958 756.5,472C 756.445,474.557 756.112,477.057 755.5,479.5C 756.145,480.646 756.978,481.646 758,482.5C 758.667,495.5 758.667,508.5 758,521.5C 756.351,527.36 755.517,533.36 755.5,539.5C 744.961,595.257 717.961,641.257 674.5,677.5C 676.431,674.236 675.431,672.403 671.5,672C 676.797,670.866 676.797,670.032 671.5,669.5C 671.5,667.5 671.5,665.5 671.5,663.5C 666.167,663.5 660.833,663.5 655.5,663.5C 655.5,666.167 655.5,668.833 655.5,671.5C 652.833,671.5 650.167,671.5 647.5,671.5C 647.5,666.167 647.5,660.833 647.5,655.5C 646.167,655.5 644.833,655.5 643.5,655.5C 643.5,653.167 643.5,650.833 643.5,648.5C 647.466,647.385 650.466,644.885 652.5,641C 651.944,640.617 651.611,640.117 651.5,639.5C 660.892,629.722 670.059,619.722 679,609.5C 686.603,599.286 693.436,588.619 699.5,577.5C 729.157,524.203 735.491,468.203 718.5,409.5C 719.467,408.194 720.801,407.527 722.5,407.5C 722.343,408.873 722.51,410.207 723,411.5C 723.589,409.137 725.089,408.137 727.5,408.5C 727.369,412.285 726.702,415.952 725.5,419.5C 728.518,419.665 731.518,419.498 734.5,419C 733.978,418.439 733.645,417.772 733.5,417C 734.63,415.24 735.63,413.407 736.5,411.5C 737.192,412.025 737.692,412.692 738,413.5C 738.333,413.167 738.667,412.833 739,412.5C 739.483,413.448 739.649,414.448 739.5,415.5C 740.5,415.5 741.5,415.5 742.5,415.5C 744.4,422.876 747.066,429.876 750.5,436.5 Z"/></g>
<g><path style="opacity:1" fill="#6435a9" d="M 304.5,610.5 C 304.826,618.684 304.492,626.684 303.5,634.5C 303.573,632.973 302.906,631.973 301.5,631.5C 295.252,616.207 292.919,600.207 294.5,583.5C 295.547,577.981 297.214,572.647 299.5,567.5C 299.149,569.869 298.982,572.203 299,574.5C 301.125,568.466 303.458,562.466 306,556.5C 306.889,555.112 307.389,555.278 307.5,557C 300.63,574.576 299.63,592.41 304.5,610.5 Z"/></g>
<g><path style="opacity:1" fill="#60349b" d="M 410.5,583.5 C 414.689,587.299 419.022,591.132 423.5,595C 435.162,603.332 448.162,606.498 462.5,604.5C 451.799,605.873 441.133,607.707 430.5,610C 421.992,602.451 415.325,593.617 410.5,583.5 Z"/></g>
<g><path style="opacity:1" fill="#d4c5f4" d="M 631.5,554.5 C 632.712,557.78 633.712,561.113 634.5,564.5C 638.691,603.281 624.357,632.781 591.5,653C 588.942,654.626 586.275,655.626 583.5,656C 600.666,636.825 609.332,614.325 609.5,588.5C 611.942,603.183 609.609,617.183 602.5,630.5C 603.274,631.711 604.107,631.711 605,630.5C 625.446,609.264 634.279,583.931 631.5,554.5 Z"/></g>
<g><path style="opacity:1" fill="#643aa6" d="M 371.5,554.5 C 367.854,558.449 364.687,562.782 362,567.5C 353.942,599.02 358.942,628.354 377,655.5C 382.154,636.556 393.154,621.889 410,611.5C 407.198,599.617 404.698,587.617 402.5,575.5C 403.129,570.909 404.462,571.242 406.5,576.5C 407.632,590.035 412.299,602.535 420.5,614C 387.355,627.127 376.522,650.627 388,684.5C 389.955,687.719 391.288,691.053 392,694.5C 379.842,687.139 370.675,677.139 364.5,664.5C 361.622,658.066 359.288,651.399 357.5,644.5C 357.512,641.145 358.012,638.478 359,636.5C 357.095,635.842 355.595,634.675 354.5,633C 355,632.5 355.5,632 356,631.5C 357.081,626.53 357.414,621.53 357,616.5C 355.908,619.044 355.241,621.711 355,624.5C 353.858,622.321 353.025,619.988 352.5,617.5C 353.262,613.889 353.762,610.222 354,606.5C 354.333,606.833 354.667,607.167 355,607.5C 355.333,606.167 355.667,604.833 356,603.5C 356.483,594.141 356.483,584.808 356,575.5C 358.45,570.376 360.617,565.043 362.5,559.5C 365.262,557.404 368.262,555.738 371.5,554.5 Z"/></g>
<g><path style="opacity:1" fill="#f2ecf9" d="M 356.5,693.5 C 357.117,695.229 358.117,696.729 359.5,698C 358.092,698.315 356.759,697.982 355.5,697C 336.206,679.563 326.873,657.73 327.5,631.5C 327.359,624.07 328.026,616.737 329.5,609.5C 330.35,605.438 331.517,601.438 333,597.5C 333.333,605.5 333.667,613.5 334,621.5C 336.011,647.359 343.511,671.359 356.5,693.5 Z"/></g>
<g><path style="opacity:1" fill="#d4d0f4" d="M 593.5,607.5 C 586.362,624.098 576.029,638.431 562.5,650.5C 560.5,650.833 558.5,651.167 556.5,651.5C 556.649,652.552 556.483,653.552 556,654.5C 554.307,655.184 552.807,656.184 551.5,657.5C 548.063,656.315 544.396,656.315 540.5,657.5C 560.788,643.544 578.454,626.877 593.5,607.5 Z"/></g>
<g><path style="opacity:1" fill="#33125f" d="M 664.5,585.5 C 666.371,585.141 667.871,584.141 669,582.5C 669.29,584.044 669.956,585.377 671,586.5C 671.743,584.559 671.576,582.726 670.5,581C 674.047,580.263 676.88,578.43 679,575.5C 678.842,578.179 678.342,580.846 677.5,583.5C 678.833,583.5 680.167,583.5 681.5,583.5C 682.167,588.833 682.833,588.833 683.5,583.5C 684.873,583.657 686.207,583.49 687.5,583C 689.316,579.606 691.483,576.44 694,573.5C 696.243,574.512 698.076,575.845 699.5,577.5C 693.436,588.619 686.603,599.286 679,609.5C 670.059,619.722 660.892,629.722 651.5,639.5C 601.731,684.048 543.731,712.048 477.5,723.5C 476.761,723.631 476.094,723.464 475.5,723C 476.833,722.667 478.167,722.333 479.5,722C 474.202,720.841 468.869,720.007 463.5,719.5C 463.5,716.833 463.5,714.167 463.5,711.5C 468.833,711.5 474.167,711.5 479.5,711.5C 479.5,708.833 479.5,706.167 479.5,703.5C 480.833,703.5 482.167,703.5 483.5,703.5C 483.5,702.167 483.5,700.833 483.5,699.5C 486.167,699.5 488.833,699.5 491.5,699.5C 491.176,696.306 492.342,695.306 495,696.5C 495.497,698.81 495.663,701.143 495.5,703.5C 496.833,703.5 498.167,703.5 499.5,703.5C 499.5,702.167 499.5,700.833 499.5,699.5C 503.5,699.5 507.5,699.5 511.5,699.5C 511.5,698.167 511.5,696.833 511.5,695.5C 514.167,695.5 516.833,695.5 519.5,695.5C 519.5,692.833 519.5,690.167 519.5,687.5C 522.167,687.5 524.833,687.5 527.5,687.5C 527.108,684.278 527.608,681.278 529,678.5C 531.795,679.783 534.628,679.783 537.5,678.5C 535.577,677.692 533.577,677.192 531.5,677C 531.833,676.667 532.167,676.333 532.5,676C 531.584,675.722 530.918,675.222 530.5,674.5C 542.015,667.654 552.682,659.654 562.5,650.5C 576.029,638.431 586.362,624.098 593.5,607.5C 598.859,594.73 602.025,581.397 603,567.5C 606.555,574.047 608.721,581.047 609.5,588.5C 609.332,614.325 600.666,636.825 583.5,656C 586.275,655.626 588.942,654.626 591.5,653C 624.357,632.781 638.691,603.281 634.5,564.5C 634.351,563.448 634.517,562.448 635,561.5C 635.667,563.5 636.333,565.5 637,567.5C 637.176,564.118 637.676,560.785 638.5,557.5C 640.896,559.067 643.563,559.9 646.5,560C 647.305,564.749 647.805,569.582 648,574.5C 650.719,575.444 653.552,575.777 656.5,575.5C 656.238,574.022 656.571,572.689 657.5,571.5C 657.833,572.167 658.167,572.833 658.5,573.5C 659.175,578.905 660.175,584.238 661.5,589.5C 662.705,591.138 664.038,591.471 665.5,590.5C 664.833,589.833 664.167,589.167 663.5,588.5C 664.127,587.583 664.461,586.583 664.5,585.5 Z"/></g>
<g><path style="opacity:1" fill="#bda6f1" d="M 651.5,639.5 C 651.611,640.117 651.944,640.617 652.5,641C 650.466,644.885 647.466,647.385 643.5,648.5C 643.5,650.833 643.5,653.167 643.5,655.5C 644.833,655.5 646.167,655.5 647.5,655.5C 647.5,660.833 647.5,666.167 647.5,671.5C 650.167,671.5 652.833,671.5 655.5,671.5C 655.5,668.833 655.5,666.167 655.5,663.5C 660.833,663.5 666.167,663.5 671.5,663.5C 671.5,665.5 671.5,667.5 671.5,669.5C 676.797,670.032 676.797,670.866 671.5,672C 675.431,672.403 676.431,674.236 674.5,677.5C 669.429,682.55 664.095,687.384 658.5,692C 633.182,710.599 605.516,724.932 575.5,735C 532.396,747.392 488.396,751.726 443.5,748C 441.942,747.79 440.609,747.29 439.5,746.5C 441.564,746.313 443.564,745.813 445.5,745C 437.793,743.916 431.127,740.749 425.5,735.5C 427.403,732.541 430.069,730.874 433.5,730.5C 448.373,728.811 463.04,726.478 477.5,723.5C 543.731,712.048 601.731,684.048 651.5,639.5 Z"/></g>
<g><path style="opacity:1" fill="#34165d" d="M 329.5,609.5 C 328.026,616.737 327.359,624.07 327.5,631.5C 326.873,657.73 336.206,679.563 355.5,697C 356.759,697.982 358.092,698.315 359.5,698C 358.117,696.729 357.117,695.229 356.5,693.5C 358.575,694.62 360.741,695.62 363,696.5C 363.208,698.859 363.374,701.026 363.5,703C 362.07,704.44 360.403,704.774 358.5,704C 351.777,694.749 349.443,695.916 351.5,707.5C 349.5,707.5 347.5,707.5 345.5,707.5C 345.5,706.167 345.5,704.833 345.5,703.5C 344.167,703.5 342.833,703.5 341.5,703.5C 341.5,702.167 341.5,700.833 341.5,699.5C 340.167,699.5 338.833,699.5 337.5,699.5C 337.5,700.833 337.5,702.167 337.5,703.5C 335.234,703.859 333.401,703.192 332,701.5C 331.626,702.416 331.126,703.25 330.5,704C 331.91,704.368 332.91,705.201 333.5,706.5C 331.922,707.298 330.256,707.798 328.5,708C 329.756,708.417 330.423,709.25 330.5,710.5C 326.686,708.087 323.019,705.421 319.5,702.5C 301.24,685.674 288.24,665.34 280.5,641.5C 281.822,641.67 282.989,641.337 284,640.5C 283.591,638.775 283.758,637.108 284.5,635.5C 285.167,637.5 285.833,639.5 286.5,641.5C 289.544,640.096 292.544,638.596 295.5,637C 297.833,636.333 300.167,636.333 302.5,637C 302.957,637.414 303.291,637.914 303.5,638.5C 300.914,639.48 298.247,639.813 295.5,639.5C 295.5,642.167 295.5,644.833 295.5,647.5C 298.167,647.5 300.833,647.5 303.5,647.5C 303.5,650.167 303.5,652.833 303.5,655.5C 307.5,655.5 311.5,655.5 315.5,655.5C 315.5,660.833 315.5,666.167 315.5,671.5C 316.833,671.5 318.167,671.5 319.5,671.5C 319.5,674.167 319.5,676.833 319.5,679.5C 320.833,679.5 322.167,679.5 323.5,679.5C 323.5,676.833 323.5,674.167 323.5,671.5C 326.368,672.017 329.034,672.35 331.5,672.5C 331.833,671.833 332.167,671.167 332.5,670.5C 330.791,662.859 328.958,655.192 327,647.5C 326.333,635.5 326.333,623.5 327,611.5C 327.417,610.244 328.25,609.577 329.5,609.5 Z"/></g>
<g><path style="opacity:1" fill="#d5caf6" d="M 429.5,635.5 C 416.54,647.568 416.207,660.068 428.5,673C 439.086,679.732 450.753,682.899 463.5,682.5C 480.011,681.497 496.011,677.997 511.5,672C 521.572,667.631 531.239,662.797 540.5,657.5C 544.396,656.315 548.063,656.315 551.5,657.5C 552.807,656.184 554.307,655.184 556,654.5C 556.483,653.552 556.649,652.552 556.5,651.5C 558.5,651.167 560.5,650.833 562.5,650.5C 552.682,659.654 542.015,667.654 530.5,674.5C 512.971,683.4 494.637,690.233 475.5,695C 464.202,696.46 452.869,696.793 441.5,696C 425.64,694.01 414.474,685.843 408,671.5C 403.667,652.661 410.833,640.661 429.5,635.5 Z"/></g>
<g><path style="opacity:1" fill="#744db8" d="M 686.5,707.5 C 686.649,708.552 686.483,709.552 686,710.5C 674.028,722.99 660.528,733.323 645.5,741.5C 645.631,740.624 645.298,739.957 644.5,739.5C 642.556,740.189 640.556,740.689 638.5,741C 637.075,742.362 636.242,743.862 636,745.5C 633.619,744.565 631.119,744.232 628.5,744.5C 649.377,734.631 668.71,722.297 686.5,707.5 Z"/></g>
<g><path style="opacity:1" fill="#331160" d="M 792.5,455.5 C 815.215,541.283 802.381,621.283 754,695.5C 702.131,767.205 631.965,808.205 543.5,818.5C 539.107,818.543 538.774,818.043 542.5,817C 540.444,816.689 538.444,816.189 536.5,815.5C 535.505,810.208 535.172,804.875 535.5,799.5C 537.288,799.785 538.955,799.452 540.5,798.5C 540.167,797.833 539.833,797.167 539.5,796.5C 530.069,795.938 520.736,794.938 511.5,793.5C 511.5,795.5 511.5,797.5 511.5,799.5C 507.5,799.5 503.5,799.5 499.5,799.5C 499.5,798.167 499.5,796.833 499.5,795.5C 500.833,795.5 502.167,795.5 503.5,795.5C 503.5,794.167 503.5,792.833 503.5,791.5C 505.877,791.216 508.044,791.216 510,791.5C 513.201,789.442 512.701,788.442 508.5,788.5C 508.5,788.167 508.5,787.833 508.5,787.5C 537.285,786.05 564.951,780.05 591.5,769.5C 605.639,764.431 619.306,758.265 632.5,751C 637.256,748.301 641.589,745.134 645.5,741.5C 660.528,733.323 674.028,722.99 686,710.5C 686.483,709.552 686.649,708.552 686.5,707.5C 739.987,662.215 771.32,604.548 780.5,534.5C 781.222,534.082 781.722,533.416 782,532.5C 783.074,509.773 782.407,487.107 780,464.5C 779.346,465.696 778.846,465.696 778.5,464.5C 780.11,462.505 781.443,460.339 782.5,458C 784.848,457.654 786.681,456.487 788,454.5C 789.356,455.38 790.856,455.714 792.5,455.5 Z"/></g>
<g><path style="opacity:1" fill="#9174c7" d="M 433.5,730.5 C 430.069,730.874 427.403,732.541 425.5,735.5C 431.127,740.749 437.793,743.916 445.5,745C 443.564,745.813 441.564,746.313 439.5,746.5C 431.909,746.415 424.576,745.415 417.5,743.5C 420.884,743.34 424.217,743.673 427.5,744.5C 429.731,744.019 429.898,743.352 428,742.5C 419.665,739.128 411.165,736.461 402.5,734.5C 404.305,732.803 406.639,731.97 409.5,732C 417.495,731.357 425.495,730.857 433.5,730.5 Z"/></g>
<g><path style="opacity:1" fill="#5f4092" d="M 402.5,734.5 C 411.165,736.461 419.665,739.128 428,742.5C 429.898,743.352 429.731,744.019 427.5,744.5C 424.217,743.673 420.884,743.34 417.5,743.5C 405.827,741.821 394.493,739.155 383.5,735.5C 391.74,736.859 399.907,738.526 408,740.5C 409.5,740.333 411,740.167 412.5,740C 409.45,737.497 406.117,735.664 402.5,734.5 Z"/></g>
<g><path style="opacity:1" fill="#c8b6eb" d="M 303.5,700.5 C 306.559,701.912 309.225,703.912 311.5,706.5C 317.38,712.782 323.713,718.616 330.5,724C 351.68,739.397 374.68,750.897 399.5,758.5C 393.577,757.561 387.744,756.228 382,754.5C 378.516,755.333 375.016,755.499 371.5,755C 367.534,753.346 363.534,751.68 359.5,750C 360.5,749.667 361.5,749.333 362.5,749C 360.19,748.503 357.857,748.337 355.5,748.5C 335.333,735.671 318,719.671 303.5,700.5 Z"/></g>
<g><path style="opacity:1" fill="#c0aceb" d="M 355.5,748.5 C 357.857,748.337 360.19,748.503 362.5,749C 361.5,749.333 360.5,749.667 359.5,750C 363.534,751.68 367.534,753.346 371.5,755C 375.016,755.499 378.516,755.333 382,754.5C 387.744,756.228 393.577,757.561 399.5,758.5C 408.27,761.241 416.937,763.907 425.5,766.5C 419.251,766.752 413.417,765.418 408,762.5C 406.463,763.114 405.13,763.114 404,762.5C 402.649,763.961 401.149,765.294 399.5,766.5C 395.759,765.927 392.593,764.26 390,761.5C 387.163,761.592 384.33,761.925 381.5,762.5C 372.22,758.862 363.553,754.195 355.5,748.5 Z"/></g>
<g><path style="opacity:1" fill="#8057d0" d="M 645.5,741.5 C 641.589,745.134 637.256,748.301 632.5,751C 619.306,758.265 605.639,764.431 591.5,769.5C 592.903,768.069 594.569,766.902 596.5,766C 595.774,764.603 594.607,763.769 593,763.5C 587.203,764.386 581.369,764.72 575.5,764.5C 593.475,759.058 611.142,752.391 628.5,744.5C 631.119,744.232 633.619,744.565 636,745.5C 636.242,743.862 637.075,742.362 638.5,741C 640.556,740.689 642.556,740.189 644.5,739.5C 645.298,739.957 645.631,740.624 645.5,741.5 Z"/></g>
<g><path style="opacity:1" fill="#b7a0ec" d="M 425.5,766.5 C 438.382,768.353 451.048,770.686 463.5,773.5C 456.952,773.351 450.452,772.684 444,771.5C 442.833,771.833 441.667,772.167 440.5,772.5C 439.408,775.094 437.741,777.261 435.5,779C 435.833,779.333 436.167,779.667 436.5,780C 435.207,780.49 433.873,780.657 432.5,780.5C 414.523,776.844 397.523,770.844 381.5,762.5C 384.33,761.925 387.163,761.592 390,761.5C 392.593,764.26 395.759,765.927 399.5,766.5C 401.149,765.294 402.649,763.961 404,762.5C 405.13,763.114 406.463,763.114 408,762.5C 413.417,765.418 419.251,766.752 425.5,766.5 Z"/></g>
<g><path style="opacity:1" fill="#8e6bcc" d="M 575.5,764.5 C 562.606,770.478 548.939,773.145 534.5,772.5C 548.125,770.214 561.791,767.548 575.5,764.5 Z"/></g>
<g><path style="opacity:1" fill="#ac8eea" d="M 463.5,773.5 C 467.702,773.183 471.702,773.517 475.5,774.5C 469.158,774.334 462.825,774.5 456.5,775C 455.872,777.8 454.872,780.467 453.5,783C 455.932,784.087 455.598,784.587 452.5,784.5C 445.547,783.99 438.88,782.656 432.5,780.5C 433.873,780.657 435.207,780.49 436.5,780C 436.167,779.667 435.833,779.333 435.5,779C 437.741,777.261 439.408,775.094 440.5,772.5C 441.667,772.167 442.833,771.833 444,771.5C 450.452,772.684 456.952,773.351 463.5,773.5 Z"/></g>
<g><path style="opacity:1" fill="#9374c9" d="M 534.5,772.5 C 534.389,773.117 534.056,773.617 533.5,774C 525.505,774.643 517.505,775.143 509.5,775.5C 500.318,775.827 491.318,775.493 482.5,774.5C 499.884,774.869 517.217,774.202 534.5,772.5 Z"/></g>
<g><path style="opacity:1" fill="#9a71df" d="M 475.5,774.5 C 477.833,774.5 480.167,774.5 482.5,774.5C 491.318,775.493 500.318,775.827 509.5,775.5C 498.346,776.495 487.012,776.828 475.5,776.5C 475.042,779.394 475.709,781.894 477.5,784C 474.833,784.667 474.833,785.333 477.5,786C 488.008,786.17 498.341,786.67 508.5,787.5C 508.5,787.833 508.5,788.167 508.5,788.5C 489.529,789.292 470.862,787.958 452.5,784.5C 455.598,784.587 455.932,784.087 453.5,783C 454.872,780.467 455.872,777.8 456.5,775C 462.825,774.5 469.158,774.334 475.5,774.5 Z"/></g>
<g><path style="opacity:1" fill="#875ada" d="M 591.5,769.5 C 564.951,780.05 537.285,786.05 508.5,787.5C 498.341,786.67 488.008,786.17 477.5,786C 474.833,785.333 474.833,784.667 477.5,784C 475.709,781.894 475.042,779.394 475.5,776.5C 487.012,776.828 498.346,776.495 509.5,775.5C 517.505,775.143 525.505,774.643 533.5,774C 534.056,773.617 534.389,773.117 534.5,772.5C 548.939,773.145 562.606,770.478 575.5,764.5C 581.369,764.72 587.203,764.386 593,763.5C 594.607,763.769 595.774,764.603 596.5,766C 594.569,766.902 592.903,768.069 591.5,769.5 Z"/></g>
</svg>
