<?xml version="1.0" encoding="UTF-8"?>
<!DOCTYPE svg PUBLIC "-//W3C//DTD SVG 1.1//EN" "http://www.w3.org/Graphics/SVG/1.1/DTD/svg11.dtd">
<svg xmlns="http://www.w3.org/2000/svg" version="1.1" width="400px" height="400px" style="shape-rendering:geometricPrecision; text-rendering:geometricPrecision; image-rendering:optimizeQuality; fill-rule:evenodd; clip-rule:evenodd" xmlns:xlink="http://www.w3.org/1999/xlink">
<g><path style="opacity:1" fill="#fefefe" d="M -0.5,-0.5 C 132.833,-0.5 266.167,-0.5 399.5,-0.5C 399.5,132.833 399.5,266.167 399.5,399.5C 266.167,399.5 132.833,399.5 -0.5,399.5C -0.5,266.167 -0.5,132.833 -0.5,-0.5 Z"/></g>
<g><path style="opacity:1" fill="#f66a69" d="M 84.5,143.5 C 81.6763,144.911 79.0096,144.745 76.5,143C 77.5,142.167 78.5,141.333 79.5,140.5C 79.1667,140.167 78.8333,139.833 78.5,139.5C 75.7362,141.608 72.7362,141.941 69.5,140.5C 72.0601,139.253 74.7268,138.253 77.5,137.5C 78.6119,136.735 79.2786,135.735 79.5,134.5C 101.06,124.928 122.394,114.928 143.5,104.5C 118.556,93.1792 93.5561,81.8459 68.5,70.5C 67.5078,66.2172 67.1744,61.8839 67.5,57.5C 98.1667,71.1667 128.833,84.8333 159.5,98.5C 159.797,102.767 159.464,106.934 158.5,111C 133.804,121.947 109.137,132.78 84.5,143.5 Z"/></g>
<g><path style="opacity:1" fill="#f17070" d="M 79.5,134.5 C 79.2786,135.735 78.6119,136.735 77.5,137.5C 74.7268,138.253 72.0601,139.253 69.5,140.5C 72.7362,141.941 75.7362,141.608 78.5,139.5C 78.8333,139.833 79.1667,140.167 79.5,140.5C 78.5,141.333 77.5,142.167 76.5,143C 79.0096,144.745 81.6763,144.911 84.5,143.5C 79.2952,146.933 73.6285,149.6 67.5,151.5C 67.3345,147.486 67.5012,143.486 68,139.5C 71.7812,137.692 75.6146,136.026 79.5,134.5 Z"/></g>
<g><path style="opacity:1" fill="#062d3c" d="M 251.5,355.5 C 221.833,355.5 192.167,355.5 162.5,355.5C 166.642,280.508 170.642,205.508 174.5,130.5C 171.833,130.5 169.167,130.5 166.5,130.5C 166.5,127.5 166.5,124.5 166.5,121.5C 171.167,121.5 175.833,121.5 180.5,121.5C 180.5,108.833 180.5,96.1667 180.5,83.5C 175.821,83.6658 171.155,83.4992 166.5,83C 179.642,69.5253 193.142,56.3587 207,43.5C 220.167,56.6667 233.333,69.8333 246.5,83C 242.179,83.499 237.846,83.6657 233.5,83.5C 233.5,96.1667 233.5,108.833 233.5,121.5C 238.167,121.5 242.833,121.5 247.5,121.5C 247.5,124.5 247.5,127.5 247.5,130.5C 244.5,130.5 241.5,130.5 238.5,130.5C 243.124,205.484 247.457,280.484 251.5,355.5 Z"/></g>
<g><path style="opacity:1" fill="#fafcfc" d="M 229.5,167.5 C 231.045,168.23 231.878,169.563 232,171.5C 232.564,185.35 233.397,199.183 234.5,213C 234.167,214.833 233.833,216.667 233.5,218.5C 214.921,228.039 196.421,237.706 178,247.5C 178.205,228.815 179.038,210.148 180.5,191.5C 197.291,184.27 213.625,176.27 229.5,167.5 Z"/></g>
<g><path style="opacity:1" fill="#a5b3bb" d="M 189.5,83.5 C 189.5,94.5 189.5,105.5 189.5,116.5C 201.167,116.5 212.833,116.5 224.5,116.5C 212.678,117.495 200.678,117.828 188.5,117.5C 188.172,105.988 188.505,94.6544 189.5,83.5 Z"/></g>
<g><path style="opacity:1" fill="#fdfefe" d="M 189.5,83.5 C 201.167,83.5 212.833,83.5 224.5,83.5C 224.5,94.5 224.5,105.5 224.5,116.5C 212.833,116.5 201.167,116.5 189.5,116.5C 189.5,105.5 189.5,94.5 189.5,83.5 Z"/></g>
<g><path style="opacity:1" fill="#f9fbfb" d="M 241.5,343.5 C 241.5,344.5 241.5,345.5 241.5,346.5C 232.5,346.5 223.5,346.5 214.5,346.5C 214.821,340.974 214.488,335.64 213.5,330.5C 209.167,330.5 204.833,330.5 200.5,330.5C 200.5,336.167 200.5,341.833 200.5,347.5C 190.833,347.5 181.167,347.5 171.5,347.5C 171.928,338.838 172.262,330.171 172.5,321.5C 194.557,311.475 216.557,300.808 238.5,289.5C 240.364,307.448 241.364,325.448 241.5,343.5 Z"/></g>
<g><path style="opacity:1" fill="#c2d3d9" d="M 213.5,330.5 C 214.488,335.64 214.821,340.974 214.5,346.5C 223.5,346.5 232.5,346.5 241.5,346.5C 241.5,345.5 241.5,344.5 241.5,343.5C 242.434,344.568 242.768,345.901 242.5,347.5C 232.833,347.5 223.167,347.5 213.5,347.5C 213.5,341.833 213.5,336.167 213.5,330.5 Z"/></g>
<g><path style="opacity:1" fill="#fdb8ba" d="M 144.5,355.5 C 144.5,358.5 144.5,361.5 144.5,364.5C 186.167,364.5 227.833,364.5 269.5,364.5C 269.5,361.5 269.5,358.5 269.5,355.5C 270.479,358.625 270.813,361.958 270.5,365.5C 228.167,365.5 185.833,365.5 143.5,365.5C 143.187,361.958 143.521,358.625 144.5,355.5 Z"/></g>
<g><path style="opacity:1" fill="#de6e6c" d="M 144.5,355.5 C 150.5,355.5 156.5,355.5 162.5,355.5C 192.167,355.5 221.833,355.5 251.5,355.5C 257.5,355.5 263.5,355.5 269.5,355.5C 269.5,358.5 269.5,361.5 269.5,364.5C 227.833,364.5 186.167,364.5 144.5,364.5C 144.5,361.5 144.5,358.5 144.5,355.5 Z"/></g>
<g><path style="opacity:1" fill="#f56b60" d="M 268.5,362.5 C 227.597,363.83 187.264,363.83 147.5,362.5C 187.833,361.174 228.166,361.174 268.5,362.5 Z"/></g>
<g><path style="opacity:1" fill="#fb656f" d="M 266.5,356.5 C 268.308,357.918 268.975,359.918 268.5,362.5C 228.166,361.174 187.833,361.174 147.5,362.5C 147.5,361.5 147.5,360.5 147.5,359.5C 185.513,358.014 223.513,358.181 261.5,360C 260.112,360.889 260.278,361.389 262,361.5C 263.221,360.728 264.221,359.728 265,358.5C 265.333,358.833 265.667,359.167 266,359.5C 266.483,358.552 266.649,357.552 266.5,356.5 Z"/></g>
<g><path style="opacity:1" fill="#fd6760" d="M 266.5,356.5 C 266.649,357.552 266.483,358.552 266,359.5C 265.667,359.167 265.333,358.833 265,358.5C 264.221,359.728 263.221,360.728 262,361.5C 260.278,361.389 260.112,360.889 261.5,360C 223.513,358.181 185.513,358.014 147.5,359.5C 146.596,358.791 146.263,357.791 146.5,356.5C 186.5,356.5 226.5,356.5 266.5,356.5 Z"/></g>
</svg>
