<svg width="13" height="13" viewBox="0 0 13 13" fill="none" xmlns="http://www.w3.org/2000/svg">
<path d="M6.192 11.4054C5.55515 10.8622 4.96485 10.2667 4.42727 9.62509C3.62053 8.66154 2.66254 7.22657 2.66254 5.85915C2.66182 4.431 3.52183 3.14318 4.84126 2.59662C6.16068 2.05006 7.67945 2.3525 8.68884 3.36282C9.35261 4.02364 9.72444 4.92253 9.72148 5.85915C9.72148 7.22657 8.76346 8.66154 7.95673 9.62509C7.41915 10.2667 6.82885 10.8622 6.192 11.4054ZM6.192 4.34653C5.65159 4.34653 5.15223 4.63483 4.88203 5.10284C4.61182 5.57085 4.61182 6.14746 4.88203 6.61547C5.15223 7.08347 5.65159 7.37178 6.192 7.37178C7.0274 7.37178 7.70463 6.69455 7.70463 5.85915C7.70463 5.02375 7.0274 4.34653 6.192 4.34653Z" fill="#79819A"/>
</svg>
