<?xml version="1.0" encoding="UTF-8"?>
<!DOCTYPE svg PUBLIC "-//W3C//DTD SVG 1.1//EN" "http://www.w3.org/Graphics/SVG/1.1/DTD/svg11.dtd">
<svg xmlns="http://www.w3.org/2000/svg" version="1.1" width="440px" height="442px" style="shape-rendering:geometricPrecision; text-rendering:geometricPrecision; image-rendering:optimizeQuality; fill-rule:evenodd; clip-rule:evenodd" xmlns:xlink="http://www.w3.org/1999/xlink">
<g><path style="opacity:0.992" fill="#4470da" d="M 107.5,122.5 C 112.167,118.5 116.5,114.167 120.5,109.5C 152.303,81.3983 189.637,68.8983 232.5,72C 295.019,80.4907 337.853,113.991 361,172.5C 379.547,237.508 363.714,292.341 313.5,337C 260.476,376.375 204.476,381.041 145.5,351C 89.0482,315.925 64.2148,265.092 71,198.5C 75.6416,169.333 87.8083,144 107.5,122.5 Z"/></g>
<g><path style="opacity:1" fill="#fbfbfc" d="M 209.5,75.5 C 276.664,74.8032 324.831,104.803 354,165.5C 373.761,218.783 366.095,268.45 331,314.5C 294.464,354.572 249.131,371.572 195,365.5C 124.054,348.218 83.5539,303.385 73.5,231C 72.4542,168.418 99.1209,121.751 153.5,91C 171.618,82.3138 190.285,77.1471 209.5,75.5 Z"/></g>
<g><path style="opacity:1" fill="#a6a1a5" d="M 207.5,89.5 C 209.067,90.6808 209.901,92.3474 210,94.5C 210.202,92.7444 210.702,91.0777 211.5,89.5C 212.086,89.7093 212.586,90.0426 213,90.5C 213.828,94.8713 213.661,99.2047 212.5,103.5C 211.402,102.385 210.235,102.385 209,103.5C 208.055,103.095 207.388,102.428 207,101.5C 205.806,103.525 204.306,103.859 202.5,102.5C 201.146,104.184 199.479,104.684 197.5,104C 195.856,100.29 195.023,96.4567 195,92.5C 195.414,92.0426 195.914,91.7093 196.5,91.5C 197.281,92.7287 197.781,94.062 198,95.5C 198.202,93.7444 198.702,92.0777 199.5,90.5C 201.015,92.5473 201.849,94.8807 202,97.5C 202.186,95.0995 202.686,92.7662 203.5,90.5C 205.297,91.9321 206.63,91.5988 207.5,89.5 Z"/></g>
<g><path style="opacity:1" fill="#9c9699" d="M 221.5,92.5 C 220.566,93.5676 220.232,94.901 220.5,96.5C 220.167,98.5 219.833,100.5 219.5,102.5C 218.178,102.67 217.011,102.337 216,101.5C 214.823,97.4803 214.656,93.4803 215.5,89.5C 216.971,90.3805 217.804,91.7139 218,93.5C 218.639,88.7302 219.805,88.3969 221.5,92.5 Z"/></g>
<g><path style="opacity:0.996" fill="#6e6e6d" d="M 227.5,90.5 C 226.791,91.404 225.791,91.7373 224.5,91.5C 225.082,93.998 225.082,96.3313 224.5,98.5C 224.5,98.8333 224.5,99.1667 224.5,99.5C 225.091,100.151 225.757,100.818 226.5,101.5C 224.562,102.534 223.228,101.868 222.5,99.5C 223.302,96.5514 223.636,93.5514 223.5,90.5C 224.833,90.5 226.167,90.5 227.5,90.5 Z"/></g>
<g><path style="opacity:0.996" fill="#757373" d="M 233.5,90.5 C 235.033,92.7896 234.7,93.4563 232.5,92.5C 231.239,94.5618 231.739,96.2285 234,97.5C 234.667,99.1667 234.667,100.833 234,102.5C 233.207,96.6354 231.873,96.3021 230,101.5C 230.11,97.871 230.276,94.2044 230.5,90.5C 231.5,89.1667 232.5,89.1667 233.5,90.5 Z"/></g>
<g><path style="opacity:1" fill="#b7afb4" d="M 227.5,90.5 C 228.043,90.56 228.376,90.8933 228.5,91.5C 227.5,92.1667 226.5,92.8333 225.5,93.5C 228.461,95.8631 228.127,97.5298 224.5,98.5C 225.082,96.3313 225.082,93.998 224.5,91.5C 225.791,91.7373 226.791,91.404 227.5,90.5 Z"/></g>
<g><path style="opacity:1" fill="#cfcbd1" d="M 227.5,90.5 C 226.167,90.5 224.833,90.5 223.5,90.5C 223.636,93.5514 223.302,96.5514 222.5,99.5C 223.228,101.868 224.562,102.534 226.5,101.5C 225.757,100.818 225.091,100.151 224.5,99.5C 225.5,99.5 226.5,99.5 227.5,99.5C 227.5,100.833 227.5,102.167 227.5,103.5C 225.801,103.66 224.134,103.494 222.5,103C 221.883,100.723 221.216,98.5563 220.5,96.5C 220.232,94.901 220.566,93.5676 221.5,92.5C 222.507,92.5476 222.84,91.5476 222.5,89.5C 224.415,89.2155 226.081,89.5489 227.5,90.5 Z"/></g>
<g><path style="opacity:0.996" fill="#848182" d="M 251.5,93.5 C 251.918,94.2216 252.584,94.7216 253.5,95C 252.944,95.3826 252.611,95.8826 252.5,96.5C 250.885,99.2604 249.719,102.26 249,105.5C 249.718,101.159 249.551,96.8259 248.5,92.5C 249.791,92.2627 250.791,92.596 251.5,93.5 Z"/></g>
<g><path style="opacity:1" fill="#a39ea1" d="M 186.5,100.5 C 187.29,101.609 187.79,102.942 188,104.5C 189.011,105.337 190.178,105.67 191.5,105.5C 188.71,107.31 185.71,107.643 182.5,106.5C 181.5,106.5 180.5,106.5 179.5,106.5C 179.795,104.265 179.461,102.265 178.5,100.5C 178.5,98.5 178.5,96.5 178.5,94.5C 179.833,94.5 181.167,94.5 182.5,94.5C 182,98.1638 183.167,101.164 186,103.5C 186.483,102.552 186.649,101.552 186.5,100.5 Z"/></g>
<g><path style="opacity:0.996" fill="#807d7e" d="M 191.5,105.5 C 190.178,105.67 189.011,105.337 188,104.5C 187.79,102.942 187.29,101.609 186.5,100.5C 185.434,98.2986 184.767,95.9653 184.5,93.5C 185.5,93.5 186.5,93.5 187.5,93.5C 187.616,96.8599 187.949,100.193 188.5,103.5C 190.179,103.285 191.179,103.952 191.5,105.5 Z"/></g>
<g><path style="opacity:1" fill="#a09a9e" d="M 251.5,93.5 C 253.5,93.8333 255.5,94.1667 257.5,94.5C 257.656,98.1351 258.822,98.4685 261,95.5C 261.167,96 261.333,96.5 261.5,97C 258.873,100.614 256.706,104.447 255,108.5C 254.308,107.975 253.808,107.308 253.5,106.5C 254.093,104.618 254.76,102.785 255.5,101C 255.085,98.9737 254.085,97.4737 252.5,96.5C 252.611,95.8826 252.944,95.3826 253.5,95C 252.584,94.7216 251.918,94.2216 251.5,93.5 Z"/></g>
<g><path style="opacity:1" fill="#bdb6bb" d="M 230.5,90.5 C 230.276,94.2044 230.11,97.871 230,101.5C 231.873,96.3021 233.207,96.6354 234,102.5C 234.667,100.833 234.667,99.1667 234,97.5C 231.739,96.2285 231.239,94.5618 232.5,92.5C 234.7,93.4563 235.033,92.7896 233.5,90.5C 235.388,92.9878 236.055,95.9878 235.5,99.5C 237.179,99.2852 238.179,99.9519 238.5,101.5C 236.895,100.031 236.395,100.365 237,102.5C 238.011,103.337 239.178,103.67 240.5,103.5C 240.083,104.124 239.416,104.457 238.5,104.5C 235.118,103.518 231.951,102.852 229,102.5C 228.088,98.1936 228.588,94.1936 230.5,90.5 Z"/></g>
<g><path style="opacity:1" fill="#9a9598" d="M 240.5,103.5 C 239.178,103.67 238.011,103.337 237,102.5C 236.395,100.365 236.895,100.031 238.5,101.5C 239.097,101.265 239.43,100.765 239.5,100C 237.836,97.3492 237.336,94.5159 238,91.5C 240.274,90.1442 242.107,90.6442 243.5,93C 242.783,94.531 241.783,95.8643 240.5,97C 240.93,98.4341 241.764,99.6008 243,100.5C 243.567,97.8323 244.067,95.1656 244.5,92.5C 245.5,92.5 246.5,92.5 247.5,92.5C 246.791,97.0066 245.624,101.34 244,105.5C 242.887,104.695 241.721,104.028 240.5,103.5 Z"/></g>
<g><path style="opacity:1" fill="#948e91" d="M 166.5,105.5 C 166.586,107.677 167.253,109.677 168.5,111.5C 167.726,112.711 166.893,112.711 166,111.5C 165.935,113.883 165.102,114.55 163.5,113.5C 161.495,110.97 160.161,108.137 159.5,105C 160.571,104.148 161.571,103.315 162.5,102.5C 162.897,101.475 163.563,101.308 164.5,102C 165.305,103.113 165.972,104.279 166.5,105.5 Z"/></g>
<g><path style="opacity:1" fill="#a29da0" d="M 176.5,107.5 C 177.222,107.082 177.722,106.416 178,105.5C 178.514,109.265 177.014,110.265 173.5,108.5C 172.811,106.556 172.311,104.556 172,102.5C 171.544,105.572 171.544,108.572 172,111.5C 170.207,108.938 168.707,106.272 167.5,103.5C 166.136,99.6064 166.969,98.9397 170,101.5C 170.329,97.9603 172.162,96.7936 175.5,98C 176.022,98.5613 176.355,99.228 176.5,100C 175.616,101.098 174.616,101.598 173.5,101.5C 174.234,104.347 175.234,106.347 176.5,107.5 Z"/></g>
<g><path style="opacity:0.996" fill="#737171" d="M 155.5,114.5 C 154.473,112.816 153.473,111.149 152.5,109.5C 152.56,108.957 152.893,108.624 153.5,108.5C 155.337,112.213 156.837,112.213 158,108.5C 159.874,110.569 160.874,112.902 161,115.5C 160.167,114.5 159.333,113.5 158.5,112.5C 157.758,114.108 157.591,115.775 158,117.5C 157.148,116.429 156.315,115.429 155.5,114.5 Z"/></g>
<g><path style="opacity:0.337" fill="#7fa2e8" d="M 120.5,109.5 C 116.5,114.167 112.167,118.5 107.5,122.5C 110.833,117.167 115.167,112.833 120.5,109.5 Z"/></g>
<g><path style="opacity:1" fill="#e32025" d="M 293.5,113.5 C 295.481,115.144 297.481,116.81 299.5,118.5C 298.066,120.22 297.233,122.22 297,124.5C 295.204,123.233 293.371,123.233 291.5,124.5C 290.928,122.083 289.928,119.916 288.5,118C 291.115,117.388 292.781,115.888 293.5,113.5 Z"/></g>
<g><path style="opacity:0.996" fill="#817e7f" d="M 151.5,118.5 C 152.867,121.132 153.701,120.798 154,117.5C 155.617,118.536 155.784,119.703 154.5,121C 152.505,121.613 150.838,121.113 149.5,119.5C 148.568,117.146 147.235,114.979 145.5,113C 147.629,108.528 149.962,108.528 152.5,113C 151.062,113.219 149.729,113.719 148.5,114.5C 149.521,115.901 150.521,117.235 151.5,118.5 Z"/></g>
<g><path style="opacity:0.996" fill="#8c888a" d="M 135.5,118.5 C 136.552,118.351 137.552,118.517 138.5,119C 137.549,119.718 137.383,120.551 138,121.5C 140.27,122.727 142.103,124.394 143.5,126.5C 144.386,127.325 144.719,128.325 144.5,129.5C 143.5,129.5 142.5,129.5 141.5,129.5C 140.575,125.241 137.908,122.574 133.5,121.5C 134.193,120.482 134.859,119.482 135.5,118.5 Z"/></g>
<g><path style="opacity:1" fill="#979295" d="M 148.5,122.5 C 149.833,122.5 150.5,123.167 150.5,124.5C 149.365,126.213 147.698,126.88 145.5,126.5C 144.804,123.446 143.304,120.78 141,118.5C 140.51,117.207 140.343,115.873 140.5,114.5C 141.552,114.351 142.552,114.517 143.5,115C 142.663,116.011 142.33,117.178 142.5,118.5C 144.288,118.215 145.955,118.548 147.5,119.5C 145.908,121.225 146.242,122.225 148.5,122.5 Z"/></g>
<g><path style="opacity:1" fill="#ccc8cd" d="M 178.5,100.5 C 179.461,102.265 179.795,104.265 179.5,106.5C 180.5,106.5 181.5,106.5 182.5,106.5C 180.672,108.161 178.672,109.828 176.5,111.5C 170.163,112.161 164.497,114.828 159.5,119.5C 158.833,119.167 158.167,118.833 157.5,118.5C 156.738,119.628 156.071,120.795 155.5,122C 153.497,122.335 151.83,123.168 150.5,124.5C 150.5,123.167 149.833,122.5 148.5,122.5C 149.11,121.609 149.443,120.609 149.5,119.5C 150.838,121.113 152.505,121.613 154.5,121C 155.784,119.703 155.617,118.536 154,117.5C 153.701,120.798 152.867,121.132 151.5,118.5C 153.134,117.419 154.467,116.085 155.5,114.5C 156.315,115.429 157.148,116.429 158,117.5C 157.591,115.775 157.758,114.108 158.5,112.5C 159.333,113.5 160.167,114.5 161,115.5C 160.874,112.902 159.874,110.569 158,108.5C 156.837,112.213 155.337,112.213 153.5,108.5C 152.893,108.624 152.56,108.957 152.5,109.5C 151.596,108.791 151.263,107.791 151.5,106.5C 153.752,105.667 155.919,105.667 158,106.5C 158.49,105.207 158.657,103.873 158.5,102.5C 159.833,102.5 161.167,102.5 162.5,102.5C 161.571,103.315 160.571,104.148 159.5,105C 160.161,108.137 161.495,110.97 163.5,113.5C 165.102,114.55 165.935,113.883 166,111.5C 166.893,112.711 167.726,112.711 168.5,111.5C 167.253,109.677 166.586,107.677 166.5,105.5C 167.338,105.158 167.672,104.492 167.5,103.5C 168.707,106.272 170.207,108.938 172,111.5C 171.544,108.572 171.544,105.572 172,102.5C 172.311,104.556 172.811,106.556 173.5,108.5C 177.014,110.265 178.514,109.265 178,105.5C 177.722,106.416 177.222,107.082 176.5,107.5C 177.449,105.263 178.116,102.929 178.5,100.5 Z"/></g>
<g><path style="opacity:1" fill="#979295" d="M 132.5,128.5 C 133.96,130.463 135.627,132.296 137.5,134C 136.552,134.483 135.552,134.649 134.5,134.5C 134.869,136.993 134.203,137.66 132.5,136.5C 128.988,134.332 126.655,131.332 125.5,127.5C 127.143,127.52 128.476,126.853 129.5,125.5C 130.855,126.188 131.855,127.188 132.5,128.5 Z"/></g>
<g><path style="opacity:0.996" fill="#848182" d="M 128.5,136.5 C 120.795,132.755 120.462,133.921 127.5,140C 126.181,140.195 124.847,140.028 123.5,139.5C 122.878,138.373 122.045,137.373 121,136.5C 119.833,132.333 121.333,130.833 125.5,132C 126.386,133.615 127.386,135.115 128.5,136.5 Z"/></g>
<g><path style="opacity:1" fill="#c7c2c7" d="M 132.5,128.5 C 135.946,129.612 137.946,131.945 138.5,135.5C 137.5,135.5 136.5,135.5 135.5,135.5C 135.5,136.5 135.5,137.5 135.5,138.5C 134.5,138.5 133.5,138.5 132.5,138.5C 132.343,141.318 131.009,143.318 128.5,144.5C 125.833,143.833 124.167,142.167 123.5,139.5C 124.847,140.028 126.181,140.195 127.5,140C 120.462,133.921 120.795,132.755 128.5,136.5C 130.035,137.354 131.368,137.354 132.5,136.5C 134.203,137.66 134.869,136.993 134.5,134.5C 135.552,134.649 136.552,134.483 137.5,134C 135.627,132.296 133.96,130.463 132.5,128.5 Z"/></g>
<g><path style="opacity:1" fill="#a19c9f" d="M 117.5,139.5 C 117.351,140.552 117.517,141.552 118,142.5C 121.715,144.172 123.715,146.839 124,150.5C 121.105,147.193 117.439,145.193 113,144.5C 113.099,141.667 114.599,140.001 117.5,139.5 Z"/></g>
<g><path style="opacity:0.996" fill="#938e91" d="M 123.5,139.5 C 124.167,142.167 125.833,143.833 128.5,144.5C 128.217,145.289 127.717,145.956 127,146.5C 124.597,145.219 122.763,143.386 121.5,141C 120.255,140.209 118.922,139.709 117.5,139.5C 117.281,138.325 117.614,137.325 118.5,136.5C 119.94,137.952 121.606,138.952 123.5,139.5 Z"/></g>
<g><path style="opacity:0.996" fill="#8c888a" d="M 317.5,149.5 C 315.522,148.856 314.189,147.522 313.5,145.5C 317.105,143.738 320.605,141.738 324,139.5C 324.492,140.549 324.326,141.549 323.5,142.5C 320.734,144.259 318.734,146.593 317.5,149.5 Z"/></g>
<g><path style="opacity:0.996" fill="#7e7b7c" d="M 317.5,149.5 C 320.549,152.478 322.215,151.811 322.5,147.5C 323.833,147.5 325.167,147.5 326.5,147.5C 325.039,141.79 326.039,141.29 329.5,146C 326.375,148.634 323.208,151.134 320,153.5C 318.519,152.529 317.685,151.196 317.5,149.5 Z"/></g>
<g><path style="opacity:0.996" fill="#8e8a8c" d="M 118.5,154.5 C 118.591,156.698 117.925,157.031 116.5,155.5C 113.735,153.787 111.402,151.62 109.5,149C 110.93,147.56 112.597,147.226 114.5,148C 117.417,149.233 120.084,150.733 122.5,152.5C 120.347,153.008 119.013,153.674 118.5,154.5 Z"/></g>
<g><path style="opacity:0.992" fill="#2a63d6" d="M 166.5,230.5 C 166.443,231.609 166.11,232.609 165.5,233.5C 155.994,239.291 145.661,241.457 134.5,240C 127.495,235.902 125.662,230.069 129,222.5C 140.167,204.667 154.667,190.167 172.5,179C 180.041,174.73 187.707,170.73 195.5,167C 193.936,162.81 192.269,158.644 190.5,154.5C 191.035,152.899 192.035,152.399 193.5,153C 196.008,156.338 198.675,159.505 201.5,162.5C 203.912,161.423 206.246,160.256 208.5,159C 206.47,155.411 205.137,151.578 204.5,147.5C 205.552,147.351 206.552,147.517 207.5,148C 209.979,151.647 212.979,154.813 216.5,157.5C 218.359,155.808 220.359,154.308 222.5,153C 226.064,153.023 229.564,152.856 233,152.5C 237.397,153.258 237.564,154.425 233.5,156C 236.297,157.233 238.963,158.733 241.5,160.5C 240.619,161.971 239.286,162.804 237.5,163C 233.5,163.333 229.5,163.667 225.5,164C 218.39,168.029 210.723,170.363 202.5,171C 200.565,174.117 198.398,174.284 196,171.5C 170.721,181.434 150.055,197.434 134,219.5C 130.361,225.081 130.195,230.581 133.5,236C 144.83,238.179 155.83,236.345 166.5,230.5 Z"/></g>
<g><path style="opacity:0.996" fill="#727171" d="M 107.5,152.5 C 109.738,154.116 112.071,155.449 114.5,156.5C 115.739,157.212 116.239,158.212 116,159.5C 113.749,157.623 111.249,156.123 108.5,155C 107.748,154.329 107.414,153.496 107.5,152.5 Z"/></g>
<g><path style="opacity:1" fill="#959093" d="M 333.5,156.5 C 334.091,157.151 334.757,157.818 335.5,158.5C 334.086,159.624 332.586,160.624 331,161.5C 330.696,163.441 329.863,165.107 328.5,166.5C 329,166.833 329.5,167.167 330,167.5C 331.567,166.144 333.4,165.477 335.5,165.5C 334.965,168.238 335.965,170.072 338.5,171C 336.336,171.914 334.336,173.081 332.5,174.5C 333.167,175.833 333.833,177.167 334.5,178.5C 333.575,179.562 332.575,179.562 331.5,178.5C 330.377,175.57 329.377,172.57 328.5,169.5C 327.164,167.591 325.83,165.591 324.5,163.5C 325.609,162.035 325.109,161.035 323,160.5C 321.441,158.783 320.608,156.783 320.5,154.5C 324.5,152.833 328.5,151.167 332.5,149.5C 332.5,150.5 332.5,151.5 332.5,152.5C 329.009,152.483 326.342,153.983 324.5,157C 325.167,157.167 325.833,157.333 326.5,157.5C 328.599,156.035 330.766,154.701 333,153.5C 334.683,154.176 334.85,155.176 333.5,156.5 Z"/></g>
<g><path style="opacity:1" fill="#d0cbd0" d="M 107.5,152.5 C 107.414,153.496 107.748,154.329 108.5,155C 111.249,156.123 113.749,157.623 116,159.5C 116.239,158.212 115.739,157.212 114.5,156.5C 115.492,156.672 116.158,156.338 116.5,155.5C 117.925,157.031 118.591,156.698 118.5,154.5C 119.001,156.129 119.001,157.629 118.5,159C 117.377,160.044 116.044,160.71 114.5,161C 115.791,162.292 115.791,163.458 114.5,164.5C 112.989,160.094 109.989,157.594 105.5,157C 108.538,160.196 108.038,161.03 104,159.5C 103.536,160.094 103.369,160.761 103.5,161.5C 101.952,161.179 101.285,160.179 101.5,158.5C 102.5,158.5 103.5,158.5 104.5,158.5C 104.39,155.941 105.056,153.608 106.5,151.5C 107.107,151.624 107.44,151.957 107.5,152.5 Z"/></g>
<g><path style="opacity:0.996" fill="#898587" d="M 114.5,164.5 C 110.805,164.618 107.138,163.618 103.5,161.5C 103.369,160.761 103.536,160.094 104,159.5C 108.038,161.03 108.538,160.196 105.5,157C 109.989,157.594 112.989,160.094 114.5,164.5 Z"/></g>
<g><path style="opacity:1" fill="#d2ced4" d="M 281.5,166.5 C 290.652,165.506 299.985,165.173 309.5,165.5C 308.086,175.818 305.752,185.818 302.5,195.5C 304.341,185.803 306.341,176.136 308.5,166.5C 299.5,166.5 290.5,166.5 281.5,166.5 Z"/></g>
<g><path style="opacity:1" fill="#a39ca0" d="M 100.5,163.5 C 104.5,164.5 108.5,165.5 112.5,166.5C 112.52,168.143 111.853,169.476 110.5,170.5C 111.815,171.895 111.481,172.895 109.5,173.5C 106.5,171.5 103.5,169.5 100.5,167.5C 99.3744,166.192 99.3744,164.858 100.5,163.5 Z"/></g>
<g><path style="opacity:1" fill="#e32025" d="M 281.5,166.5 C 290.5,166.5 299.5,166.5 308.5,166.5C 306.341,176.136 304.341,185.803 302.5,195.5C 300.232,201.906 298.565,208.573 297.5,215.5C 292.74,231.542 288.74,247.875 285.5,264.5C 282.489,275.869 279.155,287.202 275.5,298.5C 267.075,295.227 258.409,292.894 249.5,291.5C 232.844,287.594 216.177,287.594 199.5,291.5C 185.654,293.036 172.154,296.036 159,300.5C 158.333,299.833 158.333,299.167 159,298.5C 199.671,254.329 240.505,210.329 281.5,166.5 Z"/></g>
<g><path style="opacity:0.996" fill="#878385" d="M 96.5,172.5 C 97.9432,173.335 98.9432,174.668 99.5,176.5C 100.736,175.754 102.07,175.421 103.5,175.5C 103.38,178.205 104.38,178.872 106.5,177.5C 107.745,178.955 107.578,180.289 106,181.5C 102.424,179.962 98.9239,178.295 95.5,176.5C 96.2458,175.264 96.5792,173.93 96.5,172.5 Z"/></g>
<g><path style="opacity:1" fill="#b4aeb2" d="M 333.5,156.5 C 334.5,156.5 335.5,156.5 336.5,156.5C 336.707,159.239 337.707,161.573 339.5,163.5C 339.272,165.397 338.272,166.73 336.5,167.5C 338.423,168.308 340.423,168.808 342.5,169C 342.043,169.414 341.709,169.914 341.5,170.5C 342.522,171.354 343.355,172.354 344,173.5C 343.932,175.342 344.099,177.009 344.5,178.5C 339.959,178.331 339.626,178.998 343.5,180.5C 343.167,181.5 342.5,182.167 341.5,182.5C 339.046,180.341 336.379,180.008 333.5,181.5C 332.449,180.778 331.782,179.778 331.5,178.5C 332.575,179.562 333.575,179.562 334.5,178.5C 333.833,177.167 333.167,175.833 332.5,174.5C 334.336,173.081 336.336,171.914 338.5,171C 335.965,170.072 334.965,168.238 335.5,165.5C 333.4,165.477 331.567,166.144 330,167.5C 329.5,167.167 329,166.833 328.5,166.5C 329.863,165.107 330.696,163.441 331,161.5C 332.586,160.624 334.086,159.624 335.5,158.5C 334.757,157.818 334.091,157.151 333.5,156.5 Z"/></g>
<g><path style="opacity:0.996" fill="#898587" d="M 94.5,180.5 C 98.0315,181.263 101.365,182.597 104.5,184.5C 101.625,185.395 98.7917,185.062 96,183.5C 92.0687,185.517 91.5687,184.517 94.5,180.5 Z"/></g>
<g><path style="opacity:1" fill="#9a9497" d="M 344.5,178.5 C 344.957,180.747 345.957,182.747 347.5,184.5C 347.023,185.478 346.357,186.311 345.5,187C 347.886,187.284 348.552,188.284 347.5,190C 349.278,192.135 349.945,194.635 349.5,197.5C 347.011,197.298 344.677,197.798 342.5,199C 345.289,199.241 347.956,199.908 350.5,201C 351.492,204.274 350.326,205.107 347,203.5C 344.256,204.303 341.589,205.303 339,206.5C 338.5,206.167 338,205.833 337.5,205.5C 342.306,203.162 342.306,201.495 337.5,200.5C 336.129,197.674 337.129,196.174 340.5,196C 339.207,195.51 337.873,195.343 336.5,195.5C 335.849,191.097 334.849,186.431 333.5,181.5C 336.379,180.008 339.046,180.341 341.5,182.5C 342.5,182.167 343.167,181.5 343.5,180.5C 339.626,178.998 339.959,178.331 344.5,178.5 Z"/></g>
<g><path style="opacity:1" fill="#9f999d" d="M 90.5,187.5 C 95.1811,187.669 99.8478,188.002 104.5,188.5C 104.5,189.5 104.5,190.5 104.5,191.5C 103.448,191.351 102.448,191.517 101.5,192C 102.973,192.71 103.64,193.876 103.5,195.5C 99.1667,194.167 94.8333,192.833 90.5,191.5C 90.5,190.167 90.5,188.833 90.5,187.5 Z"/></g>
<g><path style="opacity:0.996" fill="#7a7879" d="M 90.5,194.5 C 93.5761,196.106 96.9094,197.106 100.5,197.5C 101.85,198.65 101.684,199.317 100,199.5C 96.7974,198.281 93.6307,197.947 90.5,198.5C 90.0941,197.443 90.0941,196.109 90.5,194.5 Z"/></g>
<g><path style="opacity:1" fill="#cdc9ce" d="M 90.5,194.5 C 90.0941,196.109 90.0941,197.443 90.5,198.5C 93.6307,197.947 96.7974,198.281 100,199.5C 101.684,199.317 101.85,198.65 100.5,197.5C 102.942,197.354 103.609,198.187 102.5,200C 98.8432,199.892 95.1765,199.892 91.5,200C 91.9743,201.729 92.9743,202.895 94.5,203.5C 93.791,204.404 92.791,204.737 91.5,204.5C 91.8693,202.007 91.2027,201.34 89.5,202.5C 89.3796,200.801 89.0463,199.135 88.5,197.5C 88.4534,195.962 89.1201,194.962 90.5,194.5 Z"/></g>
<g><path style="opacity:1" fill="#9e999c" d="M 94.5,203.5 C 96.1195,201.762 98.1195,201.262 100.5,202C 103.467,205.425 102.634,207.591 98,208.5C 96.2701,206.335 94.2701,206.001 92,207.5C 89.7437,206.193 88.9104,204.527 89.5,202.5C 91.2027,201.34 91.8693,202.007 91.5,204.5C 92.791,204.737 93.791,204.404 94.5,203.5 Z"/></g>
<g><path style="opacity:1" fill="#cdc9ce" d="M 181.5,207.5 C 183.607,206.532 185.941,206.198 188.5,206.5C 188.666,212.509 188.499,218.509 188,224.5C 187.79,226.058 187.29,227.391 186.5,228.5C 187.516,221.438 187.682,214.771 187,208.5C 185.301,207.594 183.467,207.261 181.5,207.5 Z"/></g>
<g><path style="opacity:1" fill="#e32126" d="M 150.5,207.5 C 151.833,207.5 153.167,207.5 154.5,207.5C 154.655,210.609 155.322,213.609 156.5,216.5C 157.829,213.842 159.162,211.176 160.5,208.5C 161.833,207.167 163.167,207.167 164.5,208.5C 161.667,214.167 158.833,219.833 156,225.5C 154.067,228.385 151.567,229.052 148.5,227.5C 150.737,225.884 152.07,223.717 152.5,221C 151.878,216.48 151.211,211.98 150.5,207.5 Z"/></g>
<g><path style="opacity:1" fill="#e32025" d="M 168.5,224.5 C 167.566,225.568 167.232,226.901 167.5,228.5C 166.167,228.5 164.833,228.5 163.5,228.5C 164.295,224.524 164.962,220.524 165.5,216.5C 166.038,213.811 166.705,211.144 167.5,208.5C 170.428,207.516 173.428,207.183 176.5,207.5C 176.5,208.5 176.5,209.5 176.5,210.5C 174.5,210.5 172.5,210.5 170.5,210.5C 169.617,215.132 168.95,219.798 168.5,224.5 Z"/></g>
<g><path style="opacity:1" fill="#e32025" d="M 181.5,207.5 C 183.467,207.261 185.301,207.594 187,208.5C 187.682,214.771 187.516,221.438 186.5,228.5C 185.448,228.649 184.448,228.483 183.5,228C 182.32,223.444 180.32,223.444 177.5,228C 176.365,228.749 175.365,228.583 174.5,227.5C 177.235,220.96 179.569,214.294 181.5,207.5 Z"/></g>
<g><path style="opacity:1" fill="#e32025" d="M 192.5,207.5 C 196.375,207.085 200.042,207.585 203.5,209C 202.109,210.02 200.609,210.853 199,211.5C 198,216.833 197,222.167 196,227.5C 194.989,228.337 193.822,228.67 192.5,228.5C 192.911,222.864 193.911,217.364 195.5,212C 194.167,211 192.833,210 191.5,209C 192.056,208.617 192.389,208.117 192.5,207.5 Z"/></g>
<g><path style="opacity:1" fill="#e32025" d="M 205.5,207.5 C 206.822,207.33 207.989,207.663 209,208.5C 209.333,211.5 209.667,214.5 210,217.5C 212.324,214.52 213.824,211.187 214.5,207.5C 215.978,207.238 217.311,207.571 218.5,208.5C 215.763,214.543 212.93,220.543 210,226.5C 208.211,228.229 206.044,228.896 203.5,228.5C 203.921,226.09 205.254,224.257 207.5,223C 206.141,217.961 205.474,212.795 205.5,207.5 Z"/></g>
<g><path style="opacity:1" fill="#9f999d" d="M 88.5,212.5 C 92.1817,212.335 95.8484,212.501 99.5,213C 96.7138,215.021 97.0472,216.521 100.5,217.5C 96.2079,218.274 91.8746,218.274 87.5,217.5C 87.366,215.708 87.6993,214.042 88.5,212.5 Z"/></g>
<g><path style="opacity:1" fill="#cfcbd0" d="M 297.5,215.5 C 294.26,232.125 290.26,248.458 285.5,264.5C 288.74,247.875 292.74,231.542 297.5,215.5 Z"/></g>
<g><path style="opacity:1" fill="#b8b1b6" d="M 182.5,215.5 C 183.139,216.097 183.472,216.93 183.5,218C 183.624,220.737 182.624,221.571 180.5,220.5C 181.174,218.805 181.841,217.138 182.5,215.5 Z"/></g>
<g><path style="opacity:1" fill="#999396" d="M 93.5,219.5 C 95.5207,221.955 97.854,223.288 100.5,223.5C 96.5411,224.66 92.5411,224.827 88.5,224C 87.269,222.817 87.269,221.651 88.5,220.5C 89.8415,222.005 91.5082,222.672 93.5,222.5C 93.5,221.5 93.5,220.5 93.5,219.5 Z"/></g>
<g><path style="opacity:1" fill="#cdc8cd" d="M 165.5,216.5 C 164.962,220.524 164.295,224.524 163.5,228.5C 164.833,228.5 166.167,228.5 167.5,228.5C 167.232,226.901 167.566,225.568 168.5,224.5C 168.851,228.159 167.851,231.159 165.5,233.5C 166.11,232.609 166.443,231.609 166.5,230.5C 165.432,229.566 164.099,229.232 162.5,229.5C 162.627,224.849 163.627,220.515 165.5,216.5 Z"/></g>
<g><path style="opacity:1" fill="#a39da1" d="M 93.5,225.5 C 95.5914,225.318 97.5914,225.652 99.5,226.5C 100.888,227.591 101.388,228.924 101,230.5C 96.6581,232.584 92.1581,232.917 87.5,231.5C 87.9767,230.522 88.6433,229.689 89.5,229C 89.1667,228.667 88.8333,228.333 88.5,228C 90.1749,227.015 91.8415,226.181 93.5,225.5 Z"/></g>
<g><path style="opacity:1" fill="#a39da1" d="M 348.5,207.5 C 352.333,208.667 352.333,209.833 348.5,211C 349.448,211.483 350.448,211.649 351.5,211.5C 350.948,213.331 350.948,214.997 351.5,216.5C 349.252,217.324 349.086,218.324 351,219.5C 351.687,221.568 351.52,223.568 350.5,225.5C 351.243,227.638 351.91,229.804 352.5,232C 352.18,233.653 351.18,234.653 349.5,235C 351.837,237.593 352.004,240.426 350,243.5C 347.468,244.006 345.302,245.173 343.5,247C 345.421,247.36 347.088,248.194 348.5,249.5C 347.624,250.251 346.624,250.751 345.5,251C 346.428,251.388 347.095,252.055 347.5,253C 346.305,254.533 346.305,256.033 347.5,257.5C 345.528,259.415 344.528,261.749 344.5,264.5C 340.901,264.262 340.567,265.262 343.5,267.5C 342.812,270.116 341.312,272.116 339,273.5C 327.849,269.896 327.682,270.896 338.5,276.5C 339.774,277.359 339.608,278.026 338,278.5C 335.106,277.303 332.273,275.97 329.5,274.5C 328.137,275.879 327.137,275.713 326.5,274C 327.794,269.077 330.127,264.743 333.5,261C 332.594,259.301 332.261,257.467 332.5,255.5C 335.613,255.935 336.279,254.935 334.5,252.5C 334.529,250.971 335.196,249.804 336.5,249C 335.862,247.293 335.862,245.46 336.5,243.5C 337.873,243.657 339.207,243.49 340.5,243C 338.956,242.71 337.623,242.044 336.5,241C 337.39,237.011 338.39,233.011 339.5,229C 337.877,227.124 338.21,225.79 340.5,225C 337.833,223 337.833,221 340.5,219C 338.408,218.047 338.075,216.714 339.5,215C 338.552,214.517 337.552,214.351 336.5,214.5C 336.178,212.278 336.845,210.444 338.5,209C 342.025,208.821 345.359,208.321 348.5,207.5 Z"/></g>
<g><path style="opacity:0.992" fill="#2a62d7" d="M 126.5,246.5 C 151.003,245.171 175.67,245.171 200.5,246.5C 184.167,263.833 167.833,281.167 151.5,298.5C 150.774,277.709 142.441,260.376 126.5,246.5 Z"/></g>
<g><path style="opacity:0.996" fill="#6e6e6d" d="M 338.5,265.5 C 338.158,264.662 337.492,264.328 336.5,264.5C 335.588,263.262 335.421,261.928 336,260.5C 338.166,262.121 340.666,262.955 343.5,263C 341.751,263.785 340.084,264.618 338.5,265.5 Z"/></g>
<g><path style="opacity:1" fill="#efeef1" d="M 336.5,264.5 C 337.492,264.328 338.158,264.662 338.5,265.5C 339.968,266.779 340.635,268.446 340.5,270.5C 339.5,270.5 338.5,270.5 337.5,270.5C 337.5,269.5 337.5,268.5 337.5,267.5C 336.07,267.421 334.736,267.754 333.5,268.5C 332.571,267.311 332.238,265.978 332.5,264.5C 333.833,264.5 335.167,264.5 336.5,264.5 Z"/></g>
<g><path style="opacity:1" fill="#e32025" d="M 103.5,267.5 C 105.481,269.144 107.481,270.81 109.5,272.5C 107.559,274.316 106.892,276.316 107.5,278.5C 105.5,277.167 103.5,277.167 101.5,278.5C 100.928,276.083 99.9278,273.916 98.5,272C 101.115,271.388 102.781,269.888 103.5,267.5 Z"/></g>
<g><path style="opacity:1" fill="#9a9497" d="M 330.5,294.5 C 329.417,294.539 328.417,294.873 327.5,295.5C 324.923,294.057 322.59,292.39 320.5,290.5C 322.59,290.55 323.923,289.55 324.5,287.5C 320.454,286.606 319.787,284.773 322.5,282C 319.882,280.026 320.048,278.193 323,276.5C 324.399,277.227 325.899,277.727 327.5,278C 330.269,280.353 333.269,282.353 336.5,284C 335.322,284.967 333.989,285.467 332.5,285.5C 332.833,286.167 333.167,286.833 333.5,287.5C 332.294,289.794 331.294,292.127 330.5,294.5 Z"/></g>
<g><path style="opacity:1" fill="#c9c3c9" d="M 249.5,291.5 C 241.348,290.724 233.181,290.057 225,289.5C 216.499,290.209 207.999,290.875 199.5,291.5C 216.177,287.594 232.844,287.594 249.5,291.5 Z"/></g>
<g><path style="opacity:1" fill="#8c878a" d="M 320.5,290.5 C 319.761,290.369 319.094,290.536 318.5,291C 320.983,293.406 323.65,295.573 326.5,297.5C 326.333,297.833 326.167,298.167 326,298.5C 320.475,295.471 319.642,296.138 323.5,300.5C 323.062,301.506 322.396,301.506 321.5,300.5C 321.002,301.603 320.669,302.603 320.5,303.5C 319.378,302.37 318.044,301.703 316.5,301.5C 315.54,299.539 314.207,297.873 312.5,296.5C 314.353,292.868 316.52,292.868 319,296.5C 319.5,296 320,295.5 320.5,295C 317.726,293.395 317.06,291.228 318.5,288.5C 319.522,288.855 320.189,289.522 320.5,290.5 Z"/></g>
<g><path style="opacity:1" fill="#b6b0b5" d="M 130.5,308.5 C 130.369,309.239 130.536,309.906 131,310.5C 133.554,308.119 135.387,308.785 136.5,312.5C 132.551,312.693 132.551,313.193 136.5,314C 136.815,315.902 136.815,317.902 136.5,320C 135.5,320.667 134.5,320.667 133.5,320C 134.863,317.871 134.529,317.371 132.5,318.5C 131.904,317.284 131.737,315.951 132,314.5C 131.617,315.056 131.117,315.389 130.5,315.5C 130.158,314.662 129.492,314.328 128.5,314.5C 129.658,313.427 129.658,312.261 128.5,311C 128.639,309.699 129.305,308.866 130.5,308.5 Z"/></g>
<g><path style="opacity:0.996" fill="#858283" d="M 130.5,308.5 C 129.305,308.866 128.639,309.699 128.5,311C 129.658,312.261 129.658,313.427 128.5,314.5C 126.956,314.703 125.622,315.37 124.5,316.5C 121.89,314.813 122.223,313.479 125.5,312.5C 126.457,310.082 127.791,307.916 129.5,306C 130.483,305.409 131.15,305.743 131.5,307C 131.43,307.765 131.097,308.265 130.5,308.5 Z"/></g>
<g><path style="opacity:1" fill="#bab3b8" d="M 320.5,290.5 C 322.59,292.39 324.923,294.057 327.5,295.5C 328.417,294.873 329.417,294.539 330.5,294.5C 328.29,297.054 326.124,299.721 324,302.5C 323.517,303.448 323.351,304.448 323.5,305.5C 321.5,306.167 319.5,306.833 317.5,307.5C 318.244,310.95 316.91,312.616 313.5,312.5C 311.71,316.517 309.043,319.85 305.5,322.5C 305.712,320.616 306.712,319.283 308.5,318.5C 306.5,317.167 304.833,315.5 303.5,313.5C 303.833,313.167 304.167,312.833 304.5,312.5C 311.15,318.014 311.817,317.514 306.5,311C 308.906,310.221 310.573,311.054 311.5,313.5C 313.515,312.254 315.181,310.754 316.5,309C 316.333,308.5 316.167,308 316,307.5C 315.692,308.308 315.192,308.975 314.5,309.5C 312.091,308.299 310.091,306.633 308.5,304.5C 309.716,303.904 311.049,303.737 312.5,304C 311.529,302.519 310.196,301.685 308.5,301.5C 308.856,300.13 309.69,299.13 311,298.5C 312.244,300.576 314.077,301.576 316.5,301.5C 318.044,301.703 319.378,302.37 320.5,303.5C 320.669,302.603 321.002,301.603 321.5,300.5C 322.396,301.506 323.062,301.506 323.5,300.5C 319.642,296.138 320.475,295.471 326,298.5C 326.167,298.167 326.333,297.833 326.5,297.5C 323.65,295.573 320.983,293.406 318.5,291C 319.094,290.536 319.761,290.369 320.5,290.5 Z"/></g>
<g><path style="opacity:1" fill="#938e91" d="M 136.5,312.5 C 140.276,315.461 144.276,318.128 148.5,320.5C 149.176,321.602 149.842,322.602 150.5,323.5C 148.699,327.12 146.366,329.62 143.5,331C 144.756,331.417 145.423,332.25 145.5,333.5C 141.998,331.163 138.331,329.163 134.5,327.5C 134.48,325.857 135.147,324.524 136.5,323.5C 134.735,321.947 132.902,321.614 131,322.5C 130.578,320.645 130.078,318.811 129.5,317C 129.57,316.235 129.903,315.735 130.5,315.5C 131.117,315.389 131.617,315.056 132,314.5C 131.737,315.951 131.904,317.284 132.5,318.5C 134.529,317.371 134.863,317.871 133.5,320C 134.5,320.667 135.5,320.667 136.5,320C 136.815,317.902 136.815,315.902 136.5,314C 132.551,313.193 132.551,312.693 136.5,312.5 Z"/></g>
<g><path style="opacity:1" fill="#9c969a" d="M 308.5,301.5 C 310.196,301.685 311.529,302.519 312.5,304C 311.049,303.737 309.716,303.904 308.5,304.5C 310.091,306.633 312.091,308.299 314.5,309.5C 315.192,308.975 315.692,308.308 316,307.5C 316.167,308 316.333,308.5 316.5,309C 315.181,310.754 313.515,312.254 311.5,313.5C 310.573,311.054 308.906,310.221 306.5,311C 311.817,317.514 311.15,318.014 304.5,312.5C 304.167,312.833 303.833,313.167 303.5,313.5C 304.833,315.5 306.5,317.167 308.5,318.5C 306.712,319.283 305.712,320.616 305.5,322.5C 304.244,322.904 303.077,323.571 302,324.5C 301.055,324.095 300.388,323.428 300,322.5C 300.143,326.466 298.309,328.466 294.5,328.5C 294.646,330.942 293.813,331.609 292,330.5C 291.751,331.624 291.251,332.624 290.5,333.5C 288.493,334.171 286.66,335.171 285,336.5C 282.922,335.057 282.089,335.724 282.5,338.5C 281.5,338.5 280.5,338.5 279.5,338.5C 278.965,334.563 277.632,330.896 275.5,327.5C 279.089,323.871 283.422,321.537 288.5,320.5C 288.5,319.5 288.5,318.5 288.5,317.5C 290.638,317.297 292.305,316.297 293.5,314.5C 297.089,317.46 298.256,316.793 297,312.5C 299.069,315.315 301.569,317.648 304.5,319.5C 305.521,318.998 305.688,318.332 305,317.5C 302.65,315.317 300.483,312.984 298.5,310.5C 302.5,308.08 305.834,305.08 308.5,301.5 Z"/></g>
<g><path style="opacity:0.996" fill="#787676" d="M 150.5,323.5 C 151.376,323.369 152.043,323.702 152.5,324.5C 150.439,327.872 148.106,330.872 145.5,333.5C 145.423,332.25 144.756,331.417 143.5,331C 146.366,329.62 148.699,327.12 150.5,323.5 Z"/></g>
<g><path style="opacity:1" fill="#9e989c" d="M 150.5,323.5 C 150.735,322.903 151.235,322.57 152,322.5C 156.003,325.918 160.503,328.418 165.5,330C 166.126,330.75 166.626,331.584 167,332.5C 170.041,332.58 173.207,332.247 176.5,331.5C 176.608,337.176 174.941,342.176 171.5,346.5C 170.552,343.285 169.219,342.952 167.5,345.5C 166.281,344.354 164.948,343.354 163.5,342.5C 163.709,341.914 164.043,341.414 164.5,341C 163.223,340.873 162.057,341.373 161,342.5C 160.055,342.095 159.388,341.428 159,340.5C 157.442,341.345 156.442,340.679 156,338.5C 151.954,338.413 148.454,336.746 145.5,333.5C 148.106,330.872 150.439,327.872 152.5,324.5C 152.043,323.702 151.376,323.369 150.5,323.5 Z"/></g>
<g><path style="opacity:1" fill="#ecebee" d="M 154.5,328.5 C 155.931,329.78 156.598,331.447 156.5,333.5C 150.58,334.784 149.914,333.117 154.5,328.5 Z"/></g>
<g><path style="opacity:0.996" fill="#777576" d="M 179.5,336.5 C 184.086,337.015 184.419,338.015 180.5,339.5C 180.768,341.099 180.434,342.432 179.5,343.5C 178.732,344.263 178.232,345.263 178,346.5C 177.749,343.406 178.249,340.406 179.5,337.5C 179.5,337.167 179.5,336.833 179.5,336.5 Z"/></g>
<g><path style="opacity:1" fill="#bab2b7" d="M 179.5,336.5 C 179.917,335.876 180.584,335.543 181.5,335.5C 183.843,336.658 186.177,337.658 188.5,338.5C 186.446,338.365 184.779,339.032 183.5,340.5C 182.791,339.596 181.791,339.263 180.5,339.5C 184.419,338.015 184.086,337.015 179.5,336.5 Z"/></g>
<g><path style="opacity:1" fill="#9d979a" d="M 183.5,340.5 C 184.779,339.032 186.446,338.365 188.5,338.5C 189.222,338.918 189.722,339.584 190,340.5C 192.185,338.585 194.685,338.418 197.5,340C 198.227,341.399 198.727,342.899 199,344.5C 199.523,342.777 200.523,341.444 202,340.5C 204.025,340.828 206.191,340.994 208.5,341C 209.293,344.411 209.793,347.911 210,351.5C 210.645,348.441 211.478,345.441 212.5,342.5C 213.167,342.167 213.833,341.833 214.5,341.5C 217.014,341.927 219.514,342.261 222,342.5C 223.059,342.37 223.892,341.87 224.5,341C 231.36,340.094 238.027,339.761 244.5,340C 243.663,341.011 243.33,342.178 243.5,343.5C 244.675,343.281 245.675,343.614 246.5,344.5C 242.599,347.326 243.265,348.659 248.5,348.5C 245.976,342.224 247.809,337.89 254,335.5C 254.667,336.833 255.333,338.167 256,339.5C 256.053,336.755 257.22,334.755 259.5,333.5C 260.791,335.097 262.291,336.43 264,337.5C 264.5,337.167 265,336.833 265.5,336.5C 265.013,335.554 264.68,334.554 264.5,333.5C 265.539,331.014 267.039,329.014 269,327.5C 270.285,327.95 271.452,328.617 272.5,329.5C 274.298,332.931 275.965,336.431 277.5,340C 275.836,341.767 274.669,341.267 274,338.5C 273.51,339.793 273.343,341.127 273.5,342.5C 270.514,342.435 268.18,343.602 266.5,346C 265.216,346.684 264.049,346.517 263,345.5C 258.518,348.107 253.684,349.941 248.5,351C 246.231,351.758 244.064,351.591 242,350.5C 240.241,353.663 238.241,353.996 236,351.5C 235.654,348.424 234.988,345.424 234,342.5C 233.721,346.17 233.888,349.837 234.5,353.5C 233.5,353.5 232.5,353.5 231.5,353.5C 231.264,350.086 230.598,346.753 229.5,343.5C 228.264,344.246 226.93,344.579 225.5,344.5C 225.338,346.527 225.505,348.527 226,350.5C 228.562,348.033 229.562,348.7 229,352.5C 225.194,355.574 223.361,354.574 223.5,349.5C 222.167,349.5 220.833,349.5 219.5,349.5C 219.5,351.167 219.5,352.833 219.5,354.5C 215.786,353.196 212.286,353.529 209,355.5C 206.815,354.242 204.648,354.242 202.5,355.5C 202.167,354.833 201.833,354.167 201.5,353.5C 203.331,350.012 203.831,346.345 203,342.5C 202.076,346.69 199.91,350.024 196.5,352.5C 196.478,350.098 196.311,347.432 196,344.5C 195.333,343.167 194.667,343.167 194,344.5C 193.667,343.833 193.333,343.167 193,342.5C 191.731,343.905 191.231,345.571 191.5,347.5C 192.5,347.5 193.5,347.5 194.5,347.5C 193.161,351.796 190.661,352.462 187,349.5C 185.56,350.148 184.06,350.481 182.5,350.5C 182.616,347.14 182.949,343.807 183.5,340.5 Z"/></g>
<g><path style="opacity:1" fill="#bfb9be" d="M 179.5,337.5 C 178.249,340.406 177.749,343.406 178,346.5C 178.232,345.263 178.732,344.263 179.5,343.5C 179.5,345.167 179.5,346.833 179.5,348.5C 178.022,348.762 176.689,348.429 175.5,347.5C 176.269,344.49 177.103,341.49 178,338.5C 178.383,337.944 178.883,337.611 179.5,337.5 Z"/></g>
</svg>
